<?xml version="1.0" encoding="utf-8"?>
<!-- Generator: Adobe Illustrator 23.0.1, SVG Export Plug-In . SVG Version: 6.00 Build 0)  -->
<svg version="1.1" id="Capa_1" xmlns="http://www.w3.org/2000/svg" xmlns:xlink="http://www.w3.org/1999/xlink" x="0px" y="0px"
	 viewBox="0 0 17 17" style="enable-background:new 0 0 17 17;" xml:space="preserve">
<style type="text/css">
	.st0{fill:none;stroke:#A01127;stroke-miterlimit:10;}
</style>
<g>
	<g>
		<path class="st0" d="M8.5,13.5c-0.12,0-0.22-0.1-0.22-0.22V3.72c0-0.12,0.1-0.22,0.22-0.22c0.12,0,0.22,0.1,0.22,0.22v9.56
			C8.72,13.4,8.62,13.5,8.5,13.5L8.5,13.5z"/>
	</g>
	<g>
		<path class="st0" d="M13.28,8.72H3.72C3.6,8.72,3.5,8.62,3.5,8.5c0-0.12,0.1-0.22,0.22-0.22h9.56c0.12,0,0.22,0.1,0.22,0.22
			C13.5,8.62,13.4,8.72,13.28,8.72L13.28,8.72z"/>
	</g>
</g>
</svg>
