<?xml version="1.0" encoding="utf-8"?>
<!-- Generator: Adobe Illustrator 23.0.1, SVG Export Plug-In . SVG Version: 6.00 Build 0)  -->
<svg version="1.1" id="Capa_1" xmlns="http://www.w3.org/2000/svg" xmlns:xlink="http://www.w3.org/1999/xlink" x="0px" y="0px"
	 viewBox="0 0 60 60" style="enable-background:new 0 0 60 60;" xml:space="preserve">
<style type="text/css">
	.st0{fill:#A01127;stroke:#A01127;stroke-linecap:round;stroke-linejoin:round;stroke-miterlimit:10;}
</style>
<g>
	<g>
		<path class="st0" d="M12.18,53.77c-0.16,0-0.31-0.03-0.46-0.1c-0.36-0.18-0.59-0.54-0.59-0.94v-6.79h-3
			C6.41,45.93,5,44.52,5,42.79V24.52c0-1.73,1.41-3.14,3.14-3.14h27.18c1.73,0,3.14,1.41,3.14,3.14v18.27
			c0,1.73-1.41,3.14-3.14,3.14H22.47l-9.64,7.61C12.64,53.69,12.42,53.77,12.18,53.77L12.18,53.77z M8.14,23.48
			c-0.58,0-1.05,0.47-1.05,1.05v18.27c0,0.58,0.47,1.05,1.05,1.05h4.05c0.58,0,1.05,0.47,1.05,1.05v5.68l8.23-6.5
			c0.18-0.15,0.41-0.23,0.65-0.23h13.21c0.58,0,1.05-0.47,1.05-1.05V24.52c0-0.58-0.47-1.05-1.05-1.05H8.14L8.14,23.48z"/>
	</g>
	<g>
		<path class="st0" d="M47.82,38.61c-0.23,0-0.46-0.08-0.65-0.23l-9.92-7.84c-0.45-0.36-0.53-1.01-0.17-1.47
			c0.36-0.45,1.01-0.53,1.47-0.17l8.23,6.5v-5.68c0-0.58,0.47-1.05,1.05-1.05h4.05c0.58,0,1.05-0.47,1.05-1.05V9.37
			c0-0.58-0.47-1.05-1.05-1.05H24.69c-0.58,0-1.05,0.47-1.05,1.05v12.54c0,0.58-0.47,1.05-1.05,1.05c-0.58,0-1.05-0.47-1.05-1.05
			V9.37c0-1.73,1.41-3.14,3.14-3.14h27.18c1.73,0,3.14,1.41,3.14,3.14v18.27c0,1.73-1.41,3.14-3.14,3.14h-3v6.79
			c0,0.4-0.23,0.77-0.59,0.94C48.13,38.58,47.97,38.61,47.82,38.61L47.82,38.61z"/>
	</g>
</g>
</svg>
