<?xml version="1.0" encoding="utf-8"?>
<!-- Generator: Adobe Illustrator 23.0.1, SVG Export Plug-In . SVG Version: 6.00 Build 0)  -->
<svg version="1.1" id="Capa_1" xmlns="http://www.w3.org/2000/svg" xmlns:xlink="http://www.w3.org/1999/xlink" x="0px" y="0px"
	 viewBox="0 0 60 60" style="enable-background:new 0 0 60 60;" xml:space="preserve">
<style type="text/css">
	.st0{fill:#A01127;stroke:#A01127;stroke-linecap:round;stroke-linejoin:round;stroke-miterlimit:10;}
</style>
<g>
	<g>
		<path class="st0" d="M18.14,50.79c-3.3,0-5.98-2.68-5.98-5.98c0-3.3,2.68-5.98,5.98-5.98s5.98,2.68,5.98,5.98
			C24.12,48.11,21.44,50.79,18.14,50.79L18.14,50.79z M18.14,41c-2.1,0-3.81,1.71-3.81,3.81c0,2.1,1.71,3.82,3.81,3.82
			s3.81-1.71,3.81-3.82C21.96,42.71,20.25,41,18.14,41L18.14,41z"/>
	</g>
	<g>
		<path class="st0" d="M42.43,50.79c-3.3,0-5.98-2.68-5.98-5.98c0-3.3,2.68-5.98,5.98-5.98c3.3,0,5.98,2.68,5.98,5.98
			C48.4,48.11,45.72,50.79,42.43,50.79L42.43,50.79z M42.43,41c-2.1,0-3.81,1.71-3.81,3.81c0,2.1,1.71,3.82,3.81,3.82
			c2.1,0,3.81-1.71,3.81-3.82C46.24,42.71,44.53,41,42.43,41L42.43,41z"/>
	</g>
	<g>
		<path class="st0" d="M37.53,45.89h-13.8c-0.6,0-1.08-0.48-1.08-1.08c0-0.6,0.48-1.08,1.08-1.08h13.8c0.6,0,1.08,0.48,1.08,1.08
			C38.61,45.41,38.13,45.89,37.53,45.89L37.53,45.89z"/>
	</g>
	<g>
		<path class="st0" d="M18.92,40.85c-0.11,0-0.21-0.01-0.32-0.05c-0.57-0.18-0.89-0.78-0.71-1.35l1.32-4.24l-7.39-22.16l-6.03-1.72
			C5.21,11.17,4.88,10.57,5.04,10c0.16-0.57,0.77-0.91,1.34-0.74l6.58,1.88c0.34,0.1,0.62,0.36,0.73,0.7l7.68,23.03
			c0.07,0.22,0.07,0.45,0.01,0.66l-1.42,4.57C19.81,40.56,19.38,40.85,18.92,40.85L18.92,40.85z"/>
	</g>
	<g>
		<path class="st0" d="M47.91,36.28H20.34c-0.47,0-0.89-0.31-1.03-0.76L13.98,18.5c-0.1-0.33-0.04-0.69,0.16-0.96
			c0.2-0.28,0.53-0.44,0.87-0.44h38.91c0.34,0,0.66,0.16,0.86,0.43c0.2,0.27,0.27,0.62,0.18,0.95l-4.4,15.41
			C50.47,35.24,49.34,36.28,47.91,36.28L47.91,36.28z M21.14,34.12h26.78c0.18,0,0.49-0.08,0.49-0.41c0-0.1,0.01-0.2,0.04-0.3
			l4.05-14.16h-36L21.14,34.12L21.14,34.12z"/>
	</g>
</g>
</svg>
