<?xml version="1.0" encoding="utf-8"?>
<!-- Generator: Adobe Illustrator 23.0.1, SVG Export Plug-In . SVG Version: 6.00 Build 0)  -->
<svg version="1.1" id="Capa_1" xmlns="http://www.w3.org/2000/svg" xmlns:xlink="http://www.w3.org/1999/xlink" x="0px" y="0px"
	 viewBox="0 0 60 60" style="enable-background:new 0 0 60 60;" xml:space="preserve">
<style type="text/css">
	.st0{fill:#A01127;stroke:#A01127;stroke-linecap:round;stroke-linejoin:round;stroke-miterlimit:10;}
</style>
<g>
	<g>
		<path class="st0" d="M53.88,41.67H6.12C5.5,41.67,5,41.17,5,40.55V6.53c0-0.62,0.5-1.12,1.12-1.12h47.75
			c0.62,0,1.12,0.5,1.12,1.12v34.01C55,41.17,54.5,41.67,53.88,41.67L53.88,41.67z M7.25,39.42h45.51V7.66H7.25V39.42L7.25,39.42z"
			/>
	</g>
	<g>
		<path class="st0" d="M30,51.22c-0.62,0-1.12-0.5-1.12-1.12v-8.43c0-0.62,0.5-1.12,1.12-1.12s1.12,0.5,1.12,1.12v8.43
			C31.12,50.72,30.62,51.22,30,51.22L30,51.22z"/>
	</g>
	<g>
		<path class="st0" d="M40.72,54.59c-0.29,0-0.58-0.11-0.8-0.33L30,44.27l-9.93,9.99c-0.44,0.44-1.15,0.44-1.59,0
			c-0.44-0.44-0.44-1.15,0-1.59L29.2,41.88c0.42-0.43,1.17-0.43,1.59,0l10.72,10.79c0.44,0.44,0.43,1.15-0.01,1.59
			C41.29,54.48,41.01,54.59,40.72,54.59L40.72,54.59z"/>
	</g>
	<g>
		<path class="st0" d="M53.6,14.58H6.4c-0.62,0-1.12-0.5-1.12-1.12c0-0.62,0.5-1.12,1.12-1.12H53.6c0.62,0,1.12,0.5,1.12,1.12
			C54.72,14.08,54.22,14.58,53.6,14.58L53.6,14.58z"/>
	</g>
	<g>
		<g>
			<path class="st0" d="M17.74,34.81c-0.62,0-1.12-0.5-1.12-1.12v-6.74c0-0.62,0.5-1.12,1.12-1.12c0.62,0,1.12,0.5,1.12,1.12v6.74
				C18.86,34.31,18.36,34.81,17.74,34.81L17.74,34.81z"/>
		</g>
		<g>
			<path class="st0" d="M25.91,34.81c-0.62,0-1.12-0.5-1.12-1.12V19.64c0-0.62,0.5-1.12,1.12-1.12c0.62,0,1.12,0.5,1.12,1.12v14.04
				C27.04,34.31,26.53,34.81,25.91,34.81L25.91,34.81z"/>
		</g>
		<g>
			<path class="st0" d="M34.09,34.81c-0.62,0-1.12-0.5-1.12-1.12v-4.49c0-0.62,0.5-1.12,1.12-1.12s1.12,0.5,1.12,1.12v4.49
				C35.21,34.31,34.71,34.81,34.09,34.81L34.09,34.81z"/>
		</g>
		<g>
			<path class="st0" d="M42.27,34.81c-0.62,0-1.12-0.5-1.12-1.12V22.45c0-0.62,0.5-1.12,1.12-1.12c0.62,0,1.12,0.5,1.12,1.12v11.24
				C43.39,34.31,42.89,34.81,42.27,34.81L42.27,34.81z"/>
		</g>
	</g>
</g>
</svg>
