<?xml version="1.0" encoding="utf-8"?>
<!-- Generator: Adobe Illustrator 23.0.1, SVG Export Plug-In . SVG Version: 6.00 Build 0)  -->
<svg version="1.1" id="Capa_1" xmlns="http://www.w3.org/2000/svg" xmlns:xlink="http://www.w3.org/1999/xlink" x="0px" y="0px"
	 viewBox="0 0 60 60" style="enable-background:new 0 0 60 60;" xml:space="preserve">
<style type="text/css">
	.st0{fill:#A01127;stroke:#A01127;stroke-linecap:round;stroke-linejoin:round;stroke-miterlimit:10;}
</style>
<g>
	<path class="st0" d="M30,16.69c-13.78,0-25,11.21-25,25v0.81h17.74v-0.81c0-4,3.26-7.26,7.26-7.26c1.71,0,3.26,0.62,4.51,1.61
		l-4.11,4.11c-0.13-0.03-0.26-0.08-0.4-0.08c-0.89,0-1.61,0.72-1.61,1.61c0,0.89,0.72,1.61,1.61,1.61c0.89,0,1.61-0.72,1.61-1.61
		c0-0.14-0.04-0.26-0.08-0.39l4.11-4.11c0.99,1.24,1.61,2.79,1.61,4.5v0.81H55v-0.81C55,27.91,43.79,16.69,30,16.69z M38.83,40.89
		c-0.17-1.84-0.92-3.5-2.04-4.85l8.03-8.03l-1.14-1.14l-8.03,8.03c-1.54-1.28-3.5-2.08-5.65-2.08c-4.62,0-8.43,3.55-8.83,8.06H6.62
		C7.05,28.36,17.37,18.31,30,18.31c12.63,0,22.95,10.06,23.38,22.58H38.83z"/>
	<rect x="29.2" y="21.53" class="st0" width="1.61" height="8.07"/>
	
		<rect x="17.79" y="26.26" transform="matrix(0.7072 -0.707 0.707 0.7072 -15.9701 22.0161)" class="st0" width="1.61" height="8.06"/>
</g>
</svg>
