<?xml version="1.0" encoding="utf-8"?>
<!-- Generator: Adobe Illustrator 23.0.1, SVG Export Plug-In . SVG Version: 6.00 Build 0)  -->
<svg version="1.1" id="Capa_1" xmlns="http://www.w3.org/2000/svg" xmlns:xlink="http://www.w3.org/1999/xlink" x="0px" y="0px"
	 viewBox="0 0 60 60" style="enable-background:new 0 0 60 60;" xml:space="preserve">
<style type="text/css">
	.st0{fill:none;stroke:#A01127;stroke-width:2;stroke-linecap:round;stroke-linejoin:round;stroke-miterlimit:10;}
</style>
<path class="st0" d="M54.65,33.01h-4.4c-0.24,0-0.55,0.25-0.69,0.45l-1.27,1.95c-0.13,0.2-0.25,0.58-0.3,0.82
	c-0.22,1.11-1.32,3.98-6.99,3.98c-7.06,0-6.43-10.48-6.21-12.77c0.03-0.24-0.07-0.59-0.22-0.79l-4.75-6.51
	c-0.15-0.19-0.46-0.52-0.71-0.52h-2.64c-0.24,0-0.56,0.01-0.72-0.18l-2.97-3.69c-0.15-0.19-0.47-0.31-0.72-0.31h-3.52
	c-0.24,0-0.68,0.31-0.68,0.55v0.88c0,0.24,0.04,0.24-0.2,0.24h-2.64c-0.25,0-0.59-0.02-0.78-0.18l-3.72-2.93
	c-0.19-0.15-0.54-0.24-0.78-0.24h-4.4c-0.24,0-0.39,0.2-0.32,0.44l2.41,9.01c0.06,0.24-0.08,0.6-0.33,0.6H5.34
	c-0.24,0-0.3-0.02-0.13,0.15l2.9,2.82c0.17,0.17,0.41,0.4,0.53,0.6l4.83,8.05c0.13,0.21,0.4,0.29,0.62,0.18l0.97-0.49
	c0.22-0.11,0.32-0.38,0.23-0.61L9.47,20.2c-0.09-0.22,0.03-0.57,0.27-0.57h0.88c0.24,0,0.55,0.33,0.69,0.53l8.32,12.56
	c0.13,0.2,0.3,0.6,0.37,0.83l1.52,5.34c0.06,0.23,0.28,0.55,0.48,0.69l8.09,5.66c0.2,0.14,0.56,0.21,0.79,0.16l7.83-1.64
	c0.24-0.05,0.6,0.01,0.81,0.14l3.76,2.25c0.21,0.12,0.52,0.09,0.69-0.09l1.14-1.09c0.17-0.17,0.51-0.26,0.75-0.26h2.64
	c0.24,0,0.35-0.23,0.24-0.45l-0.49-1c-0.11-0.22-0.06-0.55,0.12-0.72l5.54-5.55c0.17-0.17,0.36-0.51,0.42-0.74l0.67-2.75
	C55.05,33.28,54.9,33.01,54.65,33.01L54.65,33.01z M54.65,33.01"/>
</svg>
