<?xml version="1.0" encoding="utf-8"?>
<!-- Generator: Adobe Illustrator 23.0.1, SVG Export Plug-In . SVG Version: 6.00 Build 0)  -->
<svg version="1.1" id="Capa_1" xmlns="http://www.w3.org/2000/svg" xmlns:xlink="http://www.w3.org/1999/xlink" x="0px" y="0px"
	 viewBox="0 0 60 60" style="enable-background:new 0 0 60 60;" xml:space="preserve">
<style type="text/css">
	.st0{fill:#A01127;stroke:#A01127;stroke-linecap:round;stroke-linejoin:round;stroke-miterlimit:10;}
</style>
<g>
	<g>
		<path class="st0" d="M21.46,27.46c-4.77,0-8.66-4.4-8.66-9.8c0-5.41,3.88-9.81,8.66-9.81c4.77,0,8.65,4.4,8.65,9.81
			C30.11,23.06,26.23,27.46,21.46,27.46L21.46,27.46z M21.46,10.1c-3.53,0-6.4,3.39-6.4,7.55c0,4.16,2.87,7.55,6.4,7.55
			c3.53,0,6.4-3.39,6.4-7.55C27.86,13.49,24.99,10.1,21.46,10.1L21.46,10.1z"/>
	</g>
	<g>
		<path class="st0" d="M35.77,52.16h-29c-0.59,0-1.08-0.46-1.12-1.05l-0.64-9.35c-0.21-3.1,2.21-6.67,5.28-7.81
			c7.08-2.53,14.89-2.53,21.95,0c3.09,1.14,5.51,4.71,5.29,7.81l-0.64,9.35C36.85,51.7,36.36,52.16,35.77,52.16L35.77,52.16z
			 M7.83,49.9h26.89l0.57-8.3c0.13-1.91-1.46-4.68-3.81-5.54c-6.55-2.34-13.84-2.35-20.41,0c-2.33,0.86-3.93,3.64-3.8,5.54
			L7.83,49.9L7.83,49.9z"/>
	</g>
	<g>
		<path class="st0" d="M35.77,52.16h-29c-0.59,0-1.08-0.46-1.12-1.05l-0.64-9.35c-0.21-3.1,2.21-6.67,5.28-7.81
			c7.08-2.53,14.89-2.53,21.95,0c3.09,1.14,5.51,4.71,5.29,7.81l-0.64,9.35C36.85,51.7,36.36,52.16,35.77,52.16L35.77,52.16z
			 M7.83,49.9h26.89l0.57-8.3c0.13-1.91-1.46-4.68-3.81-5.54c-6.55-2.34-13.84-2.35-20.41,0c-2.33,0.86-3.93,3.64-3.8,5.54
			L7.83,49.9L7.83,49.9z"/>
	</g>
	<g>
		<path class="st0" d="M53.31,52.16H41.76c-0.62,0-1.13-0.5-1.13-1.13c0-0.62,0.5-1.13,1.13-1.13h10.49l0.48-7.03
			c0.11-1.56-1.26-3.92-3.19-4.63c-2.65-0.95-5.43-1.45-8.26-1.5c-0.62-0.01-1.12-0.52-1.11-1.15c0.01-0.62,0.5-1.06,1.15-1.11
			c3.08,0.05,6.11,0.6,8.99,1.64c2.73,1.01,4.86,4.17,4.67,6.9l-0.55,8.08C54.39,51.7,53.9,52.16,53.31,52.16L53.31,52.16z"/>
	</g>
	<g>
		<path class="st0" d="M44.43,29.83c-3.86,0-7-3.54-7-7.89c0-4.35,3.14-7.89,7-7.89c3.86,0,6.99,3.54,6.99,7.89
			C51.42,26.29,48.28,29.83,44.43,29.83L44.43,29.83z M44.43,16.3c-2.62,0-4.75,2.53-4.75,5.64c0,3.11,2.13,5.64,4.75,5.64
			c2.61,0,4.74-2.53,4.74-5.64C49.17,18.83,47.04,16.3,44.43,16.3L44.43,16.3z"/>
	</g>
</g>
</svg>
