<?xml version="1.0" encoding="utf-8"?>
<!-- Generator: Adobe Illustrator 23.0.1, SVG Export Plug-In . SVG Version: 6.00 Build 0)  -->
<svg version="1.1" id="Capa_1" xmlns="http://www.w3.org/2000/svg" xmlns:xlink="http://www.w3.org/1999/xlink" x="0px" y="0px"
	 viewBox="0 0 60 60" style="enable-background:new 0 0 60 60;" xml:space="preserve">
<style type="text/css">
	.st0{fill:#A01127;stroke:#A01127;stroke-linecap:round;stroke-linejoin:round;stroke-miterlimit:10;}
</style>
<g>
	<g>
		<path class="st0" d="M30,55c-5.17,0-10.25-4.24-18.39-12.6c-2.05-2.15-3.33-6.03-3.34-8.4V13.91c0-2.69,1.95-5.34,4.55-6.15
			c11.09-3.68,23.27-3.68,34.39,0c2.53,0.8,4.53,3.51,4.53,6.15v20.08c-0.01,2.38-1.29,6.26-3.33,8.4C40.25,50.75,35.17,55,30,55
			L30,55z M30,7.02c-5.64,0-11.21,0.9-16.57,2.68c-1.74,0.55-3.14,2.44-3.14,4.22V34c0.01,1.94,1.15,5.29,2.77,6.99
			C20.81,48.93,25.56,52.96,30,52.96c4.45,0,9.19-4.04,16.94-11.99c1.61-1.69,2.75-5.04,2.76-6.99V13.91c0-1.75-1.43-3.68-3.12-4.22
			C41.21,7.92,35.64,7.02,30,7.02L30,7.02z"/>
	</g>
	<g>
		<path class="st0" d="M30,48.89c-3.26,0-8.71-5.31-14.01-10.75c-0.79-0.83-1.6-3.12-1.62-4.17V14.41c0-0.44,0.29-0.83,0.71-0.97
			c9.74-3.13,20.21-3.11,29.85,0c0.42,0.14,0.71,0.53,0.71,0.97v19.58c-0.02,1.06-0.84,3.34-1.64,4.17
			C38.68,43.61,33.26,48.89,30,48.89L30,48.89z M16.41,15.16v18.8c0.01,0.61,0.67,2.38,1.04,2.77C20.4,39.76,27.32,46.86,30,46.86
			c2.68,0,9.56-7.06,12.5-10.08c0.44-0.45,1.09-2.24,1.1-2.81V15.16C34.79,12.47,25.3,12.45,16.41,15.16L16.41,15.16z"/>
	</g>
	<g>
		<path class="st0" d="M30,48.27c-0.56,0-1.02-0.46-1.02-1.02V12.32c0-0.56,0.46-1.02,1.02-1.02c0.56,0,1.02,0.46,1.02,1.02v34.94
			C31.02,47.82,30.56,48.27,30,48.27L30,48.27z"/>
	</g>
</g>
</svg>
