<?xml version="1.0" encoding="utf-8"?>
<!-- Generator: Adobe Illustrator 23.0.1, SVG Export Plug-In . SVG Version: 6.00 Build 0)  -->
<svg version="1.1" id="Capa_1" xmlns="http://www.w3.org/2000/svg" xmlns:xlink="http://www.w3.org/1999/xlink" x="0px" y="0px"
	 viewBox="0 0 60 60" style="enable-background:new 0 0 60 60;" xml:space="preserve">
<style type="text/css">
	.st0{fill:#A01127;stroke:#A01127;stroke-linecap:round;stroke-linejoin:round;stroke-miterlimit:10;}
</style>
<g>
	<g>
		<g>
			<path class="st0" d="M21.04,40.59c-0.28,0-0.55-0.11-0.75-0.31c-0.22-0.21-0.33-0.51-0.31-0.82l0.49-8.27
				c0.02-0.26,0.13-0.51,0.31-0.69L45.41,5.87c0.2-0.2,0.47-0.31,0.75-0.31l0,0c0.28,0,0.55,0.11,0.75,0.31l7.78,7.78
				c0.2,0.2,0.31,0.47,0.31,0.75c0,0.28-0.11,0.55-0.31,0.75L30.05,39.8c-0.18,0.19-0.43,0.3-0.69,0.31l-8.26,0.48
				C21.08,40.59,21.06,40.59,21.04,40.59L21.04,40.59z M22.56,31.73l-0.39,6.67l6.66-0.39l23.6-23.6l-6.27-6.27L22.56,31.73
				L22.56,31.73z"/>
		</g>
		<g>
			<path class="st0" d="M49.55,19.07c-0.27,0-0.55-0.1-0.75-0.31l-6.99-6.99c-0.42-0.42-0.42-1.09,0-1.51
				c0.42-0.42,1.09-0.42,1.51,0l6.99,6.99c0.42,0.42,0.42,1.09,0,1.51C50.1,18.97,49.82,19.07,49.55,19.07L49.55,19.07z"/>
		</g>
		<g>
			<path class="st0" d="M26.7,34.93c-0.27,0-0.54-0.1-0.75-0.31c-0.42-0.42-0.42-1.09,0-1.51l19.23-19.23
				c0.42-0.42,1.09-0.42,1.51,0c0.42,0.42,0.42,1.09,0,1.51L27.45,34.62C27.24,34.83,26.97,34.93,26.7,34.93L26.7,34.93z"/>
		</g>
		<g>
			<path class="st0" d="M21.07,40.64c-0.28,0-0.55-0.11-0.75-0.31c-0.22-0.21-0.33-0.51-0.31-0.82l0.24-4.01
				c0.03-0.5,0.4-0.91,0.89-0.99c0.15-0.04,0.25-0.06,0.35-0.07c0.17-0.01,0.32-0.02,0.46-0.02c1.21,0,2.31,0.46,3.08,1.31
				c0.78,0.86,1.15,2.01,1.04,3.26c-0.03,0.21-0.06,0.36-0.1,0.51c-0.11,0.46-0.52,0.87-0.99,0.9l-3.85,0.23
				C21.12,40.64,21.1,40.64,21.07,40.64L21.07,40.64z M22.32,36.58l-0.11,1.86l1.75-0.11c-0.04-0.44-0.21-0.85-0.5-1.17
				C23.17,36.85,22.77,36.64,22.32,36.58L22.32,36.58z"/>
		</g>
	</g>
	<g>
		<path class="st0" d="M43.71,54.44H5V20.8L17.16,8.64h25.48c0.59,0,1.06,0.48,1.06,1.06c0,0.59-0.48,1.06-1.06,1.06H18.05
			L7.13,21.69v30.62h34.45V26.22c0-0.59,0.48-1.06,1.06-1.06c0.59,0,1.06,0.48,1.06,1.06V54.44L43.71,54.44z"/>
	</g>
	<g>
		<path class="st0" d="M18.67,22.31H6.06C5.48,22.31,5,21.83,5,21.25c0-0.59,0.48-1.06,1.06-1.06h10.48V9.71
			c0-0.59,0.48-1.06,1.06-1.06c0.59,0,1.06,0.48,1.06,1.06V22.31L18.67,22.31z"/>
	</g>
</g>
</svg>
