<?xml version="1.0" encoding="utf-8"?>
<!-- Generator: Adobe Illustrator 23.0.1, SVG Export Plug-In . SVG Version: 6.00 Build 0)  -->
<svg version="1.1" id="Capa_1" xmlns="http://www.w3.org/2000/svg" xmlns:xlink="http://www.w3.org/1999/xlink" x="0px" y="0px"
	 viewBox="0 0 60 60" style="enable-background:new 0 0 60 60;" xml:space="preserve">
<style type="text/css">
	.st0{fill:#A01127;stroke:#A01127;stroke-linecap:round;stroke-linejoin:round;stroke-miterlimit:10;}
</style>
<g>
	<g>
		<path class="st0" d="M30,40.01c-9.65,0-17.51-7.85-17.51-17.5C12.5,12.85,20.35,5,30,5c9.65,0,17.5,7.85,17.5,17.51
			C47.5,32.16,39.65,40.01,30,40.01L30,40.01z M30,7.15c-8.47,0-15.36,6.89-15.36,15.36c0,8.47,6.89,15.36,15.36,15.36
			c8.47,0,15.35-6.89,15.35-15.36C45.36,14.04,38.47,7.15,30,7.15L30,7.15z"/>
	</g>
	<g>
		<path class="st0" d="M30,33.21c-5.91,0-10.71-4.8-10.71-10.7C19.3,16.6,24.1,11.8,30,11.8c5.9,0,10.7,4.8,10.7,10.71
			C40.71,28.41,35.91,33.21,30,33.21L30,33.21z M30,13.95c-4.72,0-8.56,3.84-8.56,8.56c0,4.72,3.84,8.56,8.56,8.56
			c4.72,0,8.56-3.84,8.56-8.56C38.56,17.79,34.72,13.95,30,13.95L30,13.95z"/>
	</g>
	<g>
		<g>
			<path class="st0" d="M20.86,55c-0.36,0-0.7-0.18-0.9-0.48l-3.64-5.55l-6.63-0.15c-0.38-0.01-0.72-0.21-0.91-0.54
				c-0.19-0.33-0.19-0.73-0.01-1.06l7.9-14.23c0.29-0.52,0.95-0.7,1.46-0.42c0.52,0.29,0.7,0.94,0.42,1.46l-7.04,12.67l5.42,0.12
				c0.35,0.01,0.68,0.19,0.87,0.48l2.97,4.54l7.04-12.67c0.29-0.52,0.95-0.7,1.46-0.42c0.52,0.29,0.7,0.94,0.42,1.46l-7.9,14.22
				c-0.18,0.33-0.52,0.54-0.9,0.55C20.88,55,20.87,55,20.86,55L20.86,55z"/>
		</g>
		<g>
			<path class="st0" d="M39.14,55c-0.01,0-0.03,0-0.04,0c-0.38-0.01-0.72-0.22-0.9-0.55l-7.9-14.22c-0.29-0.52-0.1-1.17,0.42-1.46
				c0.51-0.28,1.17-0.1,1.46,0.42l7.04,12.67l2.97-4.54c0.19-0.3,0.52-0.48,0.87-0.48l5.42-0.12l-7.04-12.67
				c-0.29-0.52-0.1-1.17,0.42-1.46c0.52-0.28,1.17-0.1,1.46,0.42l7.9,14.23c0.18,0.33,0.18,0.73-0.01,1.06
				c-0.19,0.32-0.53,0.53-0.91,0.54l-6.63,0.15l-3.64,5.55C39.84,54.82,39.5,55,39.14,55L39.14,55z"/>
		</g>
	</g>
</g>
</svg>
