<?xml version="1.0" encoding="utf-8"?>
<!-- Generator: Adobe Illustrator 23.0.1, SVG Export Plug-In . SVG Version: 6.00 Build 0)  -->
<svg version="1.1" id="Capa_1" xmlns="http://www.w3.org/2000/svg" xmlns:xlink="http://www.w3.org/1999/xlink" x="0px" y="0px"
	 viewBox="0 0 60 60" style="enable-background:new 0 0 60 60;" xml:space="preserve">
<style type="text/css">
	.st0{fill:#A01127;stroke:#A01127;stroke-linecap:round;stroke-linejoin:round;stroke-miterlimit:10;}
</style>
<g>
	<g>
		<path class="st0" d="M52.61,26.02H7.39c-0.43,0-0.81-0.28-0.94-0.69c-0.13-0.41,0.03-0.86,0.38-1.1L29.44,8.76
			c0.33-0.23,0.78-0.23,1.11,0l22.61,15.47c0.36,0.24,0.51,0.69,0.38,1.1C53.42,25.74,53.04,26.02,52.61,26.02L52.61,26.02z
			 M10.58,24.05h38.85L30,10.76L10.58,24.05L10.58,24.05z"/>
	</g>
	<g>
		<g>
			<path class="st0" d="M13.08,45.5c-0.54,0-0.99-0.44-0.99-0.99V25.8c0-0.54,0.44-0.99,0.99-0.99c0.54,0,0.99,0.44,0.99,0.99v18.72
				C14.07,45.06,13.63,45.5,13.08,45.5L13.08,45.5z"/>
		</g>
		<g>
			<path class="st0" d="M46.91,45.5c-0.54,0-0.99-0.44-0.99-0.99V25.8c0-0.54,0.44-0.99,0.99-0.99c0.54,0,0.99,0.44,0.99,0.99v18.72
				C47.9,45.06,47.46,45.5,46.91,45.5L46.91,45.5z"/>
		</g>
		<g>
			<path class="st0" d="M21.54,45.5c-0.54,0-0.99-0.44-0.99-0.99V25.8c0-0.54,0.44-0.99,0.99-0.99c0.54,0,0.99,0.44,0.99,0.99v18.72
				C22.53,45.06,22.09,45.5,21.54,45.5L21.54,45.5z"/>
		</g>
		<g>
			<path class="st0" d="M30,45.5c-0.54,0-0.99-0.44-0.99-0.99V25.8c0-0.54,0.44-0.99,0.99-0.99c0.54,0,0.99,0.44,0.99,0.99v18.72
				C30.98,45.06,30.54,45.5,30,45.5L30,45.5z"/>
		</g>
		<g>
			<path class="st0" d="M38.45,45.5c-0.54,0-0.99-0.44-0.99-0.99V25.8c0-0.54,0.44-0.99,0.99-0.99c0.54,0,0.99,0.44,0.99,0.99v18.72
				C39.44,45.06,39,45.5,38.45,45.5L38.45,45.5z"/>
		</g>
	</g>
	<g>
		<path class="st0" d="M50.07,45.75H9.93c-0.54,0-0.99-0.44-0.99-0.99c0-0.54,0.44-0.99,0.99-0.99h40.15c0.54,0,0.99,0.44,0.99,0.99
			C51.06,45.31,50.62,45.75,50.07,45.75L50.07,45.75z"/>
	</g>
	<g>
		<path class="st0" d="M54.01,51.41H5.99C5.44,51.41,5,50.97,5,50.43c0-0.54,0.44-0.99,0.99-0.99h48.03c0.54,0,0.99,0.44,0.99,0.99
			C55,50.97,54.56,51.41,54.01,51.41L54.01,51.41z"/>
	</g>
</g>
</svg>
