<?xml version="1.0" encoding="utf-8"?>
<!-- Generator: Adobe Illustrator 23.0.1, SVG Export Plug-In . SVG Version: 6.00 Build 0)  -->
<svg version="1.1" id="Capa_1" xmlns="http://www.w3.org/2000/svg" xmlns:xlink="http://www.w3.org/1999/xlink" x="0px" y="0px"
	 viewBox="0 0 60 60" style="enable-background:new 0 0 60 60;" xml:space="preserve">
<style type="text/css">
	.st0{fill:#A01127;stroke:#A01127;stroke-linecap:round;stroke-linejoin:round;stroke-miterlimit:10;}
</style>
<g>
	<g>
		<path class="st0" d="M30,47.88c-11.5,0-21.52-7.04-24.95-17.52c-0.07-0.23-0.07-0.48,0-0.7C8.48,19.17,18.5,12.12,30,12.12
			s21.52,7.04,24.94,17.52c0.07,0.23,0.07,0.48,0,0.7C51.52,40.83,41.5,47.88,30,47.88L30,47.88z M7.33,30
			C10.55,39.35,19.61,45.61,30,45.61c10.39,0,19.45-6.26,22.67-15.61C49.44,20.65,40.38,14.39,30,14.39
			C19.62,14.39,10.56,20.65,7.33,30L7.33,30z"/>
	</g>
	<g>
		<path class="st0" d="M30,41.16c-6.16,0-11.16-5.01-11.16-11.16c0-0.63,0.51-1.13,1.13-1.13c0.63,0,1.13,0.51,1.13,1.13
			c0,4.9,3.99,8.89,8.89,8.89c4.9,0,8.89-3.99,8.89-8.89c0-4.9-3.99-8.89-8.89-8.89c-0.63,0-1.13-0.51-1.13-1.13
			c0-0.63,0.51-1.13,1.13-1.13c6.15,0,11.16,5.01,11.16,11.16C41.16,36.16,36.15,41.16,30,41.16L30,41.16z"/>
	</g>
</g>
</svg>
