<?xml version="1.0" encoding="utf-8"?>
<!-- Generator: Adobe Illustrator 23.0.1, SVG Export Plug-In . SVG Version: 6.00 Build 0)  -->
<svg version="1.1" id="Capa_1" xmlns="http://www.w3.org/2000/svg" xmlns:xlink="http://www.w3.org/1999/xlink" x="0px" y="0px"
	 viewBox="0 0 60 60" style="enable-background:new 0 0 60 60;" xml:space="preserve">
<style type="text/css">
	.st0{fill:#A01127;stroke:#A01127;stroke-linecap:round;stroke-linejoin:round;stroke-miterlimit:10;}
</style>
<g>
	<g>
		<path class="st0" d="M44.19,50H15.81c-0.48,0-0.86-0.38-0.86-0.86V12.58c0-0.48,0.38-0.86,0.86-0.86h6.25
			c0.48,0,0.86,0.38,0.86,0.86c0,0.48-0.38,0.86-0.86,0.86h-5.39v34.84h26.67V13.44h-5.57c-0.48,0-0.86-0.38-0.86-0.86
			c0-0.48,0.38-0.86,0.86-0.86h6.43c0.48,0,0.86,0.38,0.86,0.86v36.56C45.05,49.62,44.67,50,44.19,50L44.19,50z"/>
	</g>
	<g>
		<path class="st0" d="M35.81,15.59H24.19c-1.54,0-2.8-1.25-2.8-2.8c0-1.54,1.25-2.8,2.8-2.8h11.61c1.54,0,2.8,1.25,2.8,2.8
			C38.6,14.34,37.35,15.59,35.81,15.59L35.81,15.59z M24.19,11.72c-0.59,0-1.08,0.48-1.08,1.08c0,0.59,0.48,1.08,1.08,1.08h11.61
			c0.59,0,1.08-0.48,1.08-1.08c0-0.59-0.48-1.08-1.08-1.08H24.19L24.19,11.72z"/>
	</g>
	<g>
		<path class="st0" d="M24.15,22.3h-1.99c-0.44,0-0.8,0.36-0.8,0.8v1.99c0,0.44,0.36,0.79,0.8,0.79h1.99c0.44,0,0.79-0.36,0.79-0.79
			v-1.99C24.94,22.65,24.59,22.3,24.15,22.3L24.15,22.3z"/>
		<g>
			<path class="st0" d="M38.64,24.94H27.59c-0.48,0-0.86-0.38-0.86-0.86s0.38-0.86,0.86-0.86h11.05c0.48,0,0.86,0.38,0.86,0.86
				S39.11,24.94,38.64,24.94L38.64,24.94z"/>
		</g>
		<path class="st0" d="M24.15,34.1h-1.99c-0.44,0-0.8,0.35-0.8,0.79v1.99c0,0.44,0.36,0.8,0.8,0.8h1.99c0.44,0,0.79-0.36,0.79-0.8
			v-1.99C24.94,34.45,24.59,34.1,24.15,34.1L24.15,34.1z"/>
		<g>
			<path class="st0" d="M38.64,36.75H27.59c-0.48,0-0.86-0.38-0.86-0.86c0-0.48,0.38-0.86,0.86-0.86h11.05
				c0.48,0,0.86,0.38,0.86,0.86C39.5,36.36,39.11,36.75,38.64,36.75L38.64,36.75z"/>
		</g>
		<path class="st0" d="M24.15,28.2h-1.99c-0.44,0-0.8,0.36-0.8,0.8v1.99c0,0.44,0.36,0.8,0.8,0.8h1.99c0.44,0,0.79-0.36,0.79-0.8
			v-1.99C24.94,28.55,24.59,28.2,24.15,28.2L24.15,28.2z"/>
		<g>
			<path class="st0" d="M38.64,30.85H27.59c-0.48,0-0.86-0.38-0.86-0.86c0-0.48,0.38-0.86,0.86-0.86h11.05
				c0.48,0,0.86,0.38,0.86,0.86C39.5,30.46,39.11,30.85,38.64,30.85L38.64,30.85z"/>
		</g>
	</g>
</g>
</svg>
