<?xml version="1.0" encoding="utf-8"?>
<!-- Generator: Adobe Illustrator 23.0.1, SVG Export Plug-In . SVG Version: 6.00 Build 0)  -->
<svg version="1.1" id="Capa_1" xmlns="http://www.w3.org/2000/svg" xmlns:xlink="http://www.w3.org/1999/xlink" x="0px" y="0px"
	 viewBox="0 0 60 60" style="enable-background:new 0 0 60 60;" xml:space="preserve">
<style type="text/css">
	.st0{fill:#A01127;stroke:#A01127;stroke-linecap:round;stroke-linejoin:round;stroke-miterlimit:10;}
</style>
<g>
	<g>
		<path class="st0" d="M14.59,21.34h-2.17c-0.6,0-1.09-0.49-1.09-1.09c0-0.6,0.49-1.09,1.09-1.09h2.17c0.6,0,1.09,0.49,1.09,1.09
			C15.68,20.85,15.19,21.34,14.59,21.34L14.59,21.34z"/>
	</g>
	<g>
		<path class="st0" d="M47.58,21.34h-2.17c-0.6,0-1.09-0.49-1.09-1.09c0-0.6,0.49-1.09,1.09-1.09h2.17c0.6,0,1.09,0.49,1.09,1.09
			C48.66,20.85,48.18,21.34,47.58,21.34L47.58,21.34z"/>
	</g>
	<g>
		<path class="st0" d="M31.06,18.3c-2.39,0-4.34-1.95-4.34-4.34c0-2.4,1.95-4.34,4.34-4.34c2.39,0,4.34,1.95,4.34,4.34
			C35.4,16.35,33.46,18.3,31.06,18.3L31.06,18.3z M31.06,11.79c-1.2,0-2.17,0.97-2.17,2.17c0,1.2,0.97,2.17,2.17,2.17
			c1.2,0,2.17-0.97,2.17-2.17C33.23,12.76,32.26,11.79,31.06,11.79L31.06,11.79z"/>
	</g>
	<g>
		<path class="st0" d="M20.34,11.79c-1.87,0-3.39-1.52-3.39-3.39c0-1.87,1.52-3.39,3.39-3.39c1.87,0,3.39,1.52,3.39,3.39
			C23.73,10.26,22.21,11.79,20.34,11.79L20.34,11.79z M20.34,7.17c-0.67,0-1.22,0.55-1.22,1.22c0,0.67,0.55,1.22,1.22,1.22
			c0.67,0,1.22-0.55,1.22-1.22C21.56,7.72,21.01,7.17,20.34,7.17L20.34,7.17z"/>
	</g>
	<path class="st0" d="M24.77,18.53c-0.9,0-1.63,0.73-1.63,1.63c0,0.9,0.73,1.63,1.63,1.63c0.9,0,1.63-0.73,1.63-1.63
		C26.4,19.26,25.67,18.53,24.77,18.53L24.77,18.53z"/>
	<g>
		<path class="st0" d="M42.96,55H16.9c-1.8,0-3.26-1.46-3.26-3.26V20.25c0-0.6,0.49-1.09,1.09-1.09c0.6,0,1.09,0.49,1.09,1.09v31.49
			c0,0.6,0.49,1.09,1.09,1.09h26.06c0.6,0,1.09-0.49,1.09-1.09V20.25c0-0.6,0.49-1.09,1.09-1.09c0.6,0,1.09,0.49,1.09,1.09v31.49
			C46.22,53.54,44.76,55,42.96,55L42.96,55z"/>
	</g>
	<g>
		<path class="st0" d="M38.89,25.86h-7.06c-0.6,0-1.09-0.49-1.09-1.09c0-0.6,0.49-1.09,1.09-1.09h7.06c0.6,0,1.09,0.49,1.09,1.09
			C39.98,25.37,39.49,25.86,38.89,25.86L38.89,25.86z"/>
	</g>
	<g>
		<path class="st0" d="M38.89,31.29h-7.06c-0.6,0-1.09-0.49-1.09-1.09c0-0.6,0.49-1.09,1.09-1.09h7.06c0.6,0,1.09,0.49,1.09,1.09
			C39.98,30.8,39.49,31.29,38.89,31.29L38.89,31.29z"/>
	</g>
	<g>
		<path class="st0" d="M38.89,36.72h-7.06c-0.6,0-1.09-0.49-1.09-1.09c0-0.6,0.49-1.09,1.09-1.09h7.06c0.6,0,1.09,0.49,1.09,1.09
			C39.98,36.23,39.49,36.72,38.89,36.72L38.89,36.72z"/>
	</g>
	<g>
		<path class="st0" d="M38.89,42.15h-7.06c-0.6,0-1.09-0.49-1.09-1.09c0-0.6,0.49-1.09,1.09-1.09h7.06c0.6,0,1.09,0.49,1.09,1.09
			C39.98,41.66,39.49,42.15,38.89,42.15L38.89,42.15z"/>
	</g>
	<g>
		<path class="st0" d="M38.89,47.58h-7.06c-0.6,0-1.09-0.49-1.09-1.09c0-0.6,0.49-1.09,1.09-1.09h7.06c0.6,0,1.09,0.49,1.09,1.09
			C39.98,47.09,39.49,47.58,38.89,47.58L38.89,47.58z"/>
	</g>
</g>
</svg>
