<?xml version="1.0" encoding="utf-8"?>
<!-- Generator: Adobe Illustrator 23.0.1, SVG Export Plug-In . SVG Version: 6.00 Build 0)  -->
<svg version="1.1" id="Capa_1" xmlns="http://www.w3.org/2000/svg" xmlns:xlink="http://www.w3.org/1999/xlink" x="0px" y="0px"
	 viewBox="0 0 60 60" style="enable-background:new 0 0 60 60;" xml:space="preserve">
<style type="text/css">
	.st0{fill:#A01127;stroke:#A01127;stroke-linecap:round;stroke-linejoin:round;stroke-miterlimit:10;}
</style>
<g>
	<g>
		<path class="st0" d="M25.17,21.04c-7.67,0-15.82-2.15-15.82-6.13c0-3.98,8.15-6.13,15.82-6.13c7.67,0,15.82,2.15,15.82,6.13
			C40.99,18.89,32.84,21.04,25.17,21.04L25.17,21.04z M25.17,10.66c-8.63,0-13.93,2.47-13.93,4.25c0,1.77,5.3,4.24,13.93,4.24
			c8.63,0,13.93-2.47,13.93-4.24C39.1,13.13,33.8,10.66,25.17,10.66L25.17,10.66z"/>
	</g>
	<g>
		<path class="st0" d="M25.17,21.04c-7.67,0-15.82-2.15-15.82-6.13c0-0.52,0.42-0.94,0.94-0.94c0.52,0,0.94,0.42,0.94,0.94
			c0,1.77,5.3,4.24,13.93,4.24c8.63,0,13.93-2.47,13.93-4.24c0-0.52,0.42-0.94,0.94-0.94c0.52,0,0.94,0.42,0.94,0.94
			C40.99,18.89,32.84,21.04,25.17,21.04L25.17,21.04z"/>
	</g>
	<g>
		<path class="st0" d="M25.17,26.89c-7.67,0-15.82-2.15-15.82-6.13c0-0.52,0.42-0.94,0.94-0.94c0.52,0,0.94,0.42,0.94,0.94
			c0,1.77,5.3,4.24,13.93,4.24c0.86,0,1.71-0.03,2.54-0.08c0.51-0.05,0.97,0.36,1,0.88c0.03,0.52-0.36,0.97-0.88,1
			C26.96,26.87,26.08,26.89,25.17,26.89L25.17,26.89z"/>
	</g>
	<g>
		<path class="st0" d="M10.3,21.71c-0.52,0-0.94-0.42-0.94-0.94v-5.79c0-0.52,0.42-0.94,0.94-0.94c0.52,0,0.94,0.42,0.94,0.94v5.79
			C11.24,21.28,10.82,21.71,10.3,21.71L10.3,21.71z"/>
	</g>
	<g>
		<path class="st0" d="M40.04,21.1c-0.52,0-0.94-0.42-0.94-0.94v-5.18c0-0.52,0.42-0.94,0.94-0.94c0.52,0,0.94,0.42,0.94,0.94v5.18
			C40.99,20.68,40.57,21.1,40.04,21.1L40.04,21.1z"/>
	</g>
	<g>
		<path class="st0" d="M24.08,38.15c-0.01,0-0.02,0-0.02,0c-6.99-0.18-12.57-1.93-14.19-4.47c-0.28-0.44-0.15-1.02,0.28-1.3
			c0.44-0.28,1.02-0.15,1.3,0.28c1.06,1.66,5.75,3.43,12.65,3.6c0.52,0.01,0.93,0.45,0.92,0.97C25.01,37.74,24.59,38.15,24.08,38.15
			L24.08,38.15z"/>
	</g>
	<g>
		<path class="st0" d="M25.89,44.01c-8.13,0-16.53-2.29-16.53-6.12c0-0.52,0.42-0.94,0.94-0.94c0.52,0,0.94,0.42,0.94,0.94
			c0,1.69,5.84,4.24,14.65,4.24c0.52,0,0.94,0.42,0.94,0.94C26.83,43.59,26.41,44.01,25.89,44.01L25.89,44.01z"/>
	</g>
	<g>
		<path class="st0" d="M20.82,29C13.15,29,5,26.85,5,22.87c0-1.28,0.85-3.1,4.92-4.54c0.48-0.17,1.03,0.08,1.2,0.58
			c0.17,0.49-0.08,1.03-0.58,1.2c-2.26,0.8-3.66,1.85-3.66,2.76c0,1.77,5.3,4.24,13.93,4.24c1.71,0,3.38-0.1,4.96-0.3
			c0.51-0.07,0.99,0.3,1.05,0.82c0.06,0.52-0.3,0.99-0.82,1.05C24.35,28.89,22.6,29,20.82,29L20.82,29z"/>
	</g>
	<g>
		<path class="st0" d="M20.82,34.86C13.15,34.86,5,32.71,5,28.72c0-0.52,0.42-0.94,0.94-0.94c0.52,0,0.94,0.42,0.94,0.94
			c0,1.77,5.3,4.24,13.93,4.24c1.14,0,2.27-0.05,3.36-0.13c0.5-0.03,0.97,0.34,1.02,0.86c0.04,0.52-0.34,0.97-0.86,1.02
			C23.19,34.81,22,34.86,20.82,34.86L20.82,34.86z"/>
	</g>
	<g>
		<path class="st0" d="M5.94,29.67C5.42,29.67,5,29.25,5,28.72v-5.79c0-0.52,0.42-0.94,0.94-0.94c0.52,0,0.94,0.42,0.94,0.94v5.79
			C6.89,29.25,6.46,29.67,5.94,29.67L5.94,29.67z"/>
	</g>
	<g>
		<path class="st0" d="M10.3,39.36c-0.52,0-0.94-0.42-0.94-0.94v-5.08c0-0.52,0.42-0.94,0.94-0.94c0.52,0,0.94,0.42,0.94,0.94v5.08
			C11.24,38.94,10.82,39.36,10.3,39.36L10.3,39.36z"/>
	</g>
	<g>
		<path class="st0" d="M39.18,51.23c-8.72,0-15.82-7.1-15.82-15.82c0-8.72,7.1-15.82,15.82-15.82C47.9,19.6,55,26.69,55,35.41
			C55,44.13,47.9,51.23,39.18,51.23L39.18,51.23z M39.18,21.48c-7.68,0-13.93,6.25-13.93,13.93c0,7.68,6.25,13.93,13.93,13.93
			c7.68,0,13.93-6.25,13.93-13.93C53.11,27.73,46.86,21.48,39.18,21.48L39.18,21.48z"/>
	</g>
	<g>
		<path class="st0" d="M38.36,42.29c-0.78-0.07-1.49-0.26-2.13-0.58c-0.64-0.31-1.19-0.71-1.66-1.19l0.51-0.79
			c0.05-0.07,0.11-0.13,0.2-0.17c0.08-0.05,0.17-0.07,0.26-0.07c0.12,0,0.26,0.06,0.41,0.18c0.15,0.12,0.35,0.26,0.57,0.42
			c0.22,0.16,0.49,0.31,0.81,0.46c0.31,0.15,0.69,0.25,1.12,0.3l0.36-5.13c-0.45-0.13-0.89-0.29-1.33-0.46
			c-0.44-0.17-0.83-0.39-1.17-0.67c-0.34-0.28-0.62-0.62-0.83-1.04c-0.21-0.41-0.31-0.94-0.31-1.56c0-0.47,0.09-0.93,0.27-1.38
			c0.19-0.45,0.45-0.85,0.81-1.19c0.35-0.35,0.78-0.64,1.3-0.86c0.51-0.22,1.11-0.34,1.77-0.34l0.1-1.41
			c0.02-0.12,0.06-0.23,0.15-0.33c0.08-0.1,0.2-0.14,0.34-0.14h0.64l-0.13,1.91c0.68,0.08,1.26,0.26,1.75,0.52
			c0.49,0.26,0.93,0.58,1.31,0.95l-0.42,0.64c-0.13,0.19-0.28,0.29-0.44,0.29c-0.09,0-0.2-0.04-0.33-0.12
			c-0.13-0.08-0.29-0.17-0.48-0.28c-0.19-0.11-0.4-0.21-0.65-0.32c-0.24-0.1-0.52-0.18-0.84-0.23l-0.32,4.67
			c0.46,0.14,0.92,0.3,1.37,0.46c0.45,0.17,0.85,0.39,1.22,0.65c0.36,0.26,0.65,0.6,0.87,0.99c0.23,0.4,0.34,0.89,0.34,1.49
			c0,0.58-0.1,1.13-0.29,1.64c-0.19,0.51-0.48,0.96-0.84,1.35c-0.37,0.39-0.83,0.7-1.36,0.94c-0.54,0.24-1.15,0.36-1.84,0.36
			l-0.11,1.73c-0.01,0.12-0.06,0.23-0.15,0.32c-0.09,0.09-0.2,0.14-0.33,0.14h-0.64L38.36,42.29z M36.8,31.84
			c0,0.31,0.05,0.58,0.16,0.81c0.11,0.23,0.26,0.43,0.46,0.6c0.19,0.18,0.42,0.33,0.67,0.46c0.26,0.13,0.54,0.24,0.84,0.35
			l0.29-4.35c-0.42,0.04-0.78,0.12-1.09,0.25c-0.3,0.13-0.56,0.29-0.76,0.48c-0.2,0.19-0.34,0.41-0.43,0.65
			C36.84,31.32,36.8,31.57,36.8,31.84z M42.15,38.25c0-0.32-0.06-0.6-0.18-0.83c-0.12-0.23-0.28-0.43-0.48-0.6
			c-0.21-0.17-0.45-0.31-0.73-0.43c-0.27-0.12-0.57-0.23-0.89-0.34l-0.33,4.81c0.42-0.04,0.79-0.13,1.11-0.27
			c0.33-0.14,0.6-0.33,0.82-0.55c0.22-0.22,0.39-0.49,0.5-0.79C42.1,38.93,42.15,38.61,42.15,38.25z"/>
	</g>
</g>
</svg>
