<?xml version="1.0" encoding="utf-8"?>
<!-- Generator: Adobe Illustrator 23.0.1, SVG Export Plug-In . SVG Version: 6.00 Build 0)  -->
<svg version="1.1" id="Capa_1" xmlns="http://www.w3.org/2000/svg" xmlns:xlink="http://www.w3.org/1999/xlink" x="0px" y="0px"
	 viewBox="0 0 60 60" style="enable-background:new 0 0 60 60;" xml:space="preserve">
<style type="text/css">
	.st0{fill:#A01127;stroke:#A01127;stroke-linecap:round;stroke-linejoin:round;stroke-miterlimit:10;}
</style>
<g>
	<g>
		<path class="st0" d="M27.38,44.07c-9.39,0-17.03-7.64-17.03-17.03c0-9.39,7.65-17.04,17.04-17.04c9.39,0,17.04,7.64,17.04,17.04
			C44.42,36.43,36.78,44.07,27.38,44.07L27.38,44.07z M27.38,11.8c-8.4,0-15.23,6.84-15.24,15.24c0,8.4,6.84,15.23,15.23,15.23
			c8.41,0,15.24-6.83,15.24-15.23C42.62,18.64,35.78,11.8,27.38,11.8L27.38,11.8z"/>
	</g>
	<g>
		<path class="st0" d="M17.3,27.03h-1.8c0-6.55,5.33-11.89,11.88-11.89v1.8C21.82,16.95,17.3,21.47,17.3,27.03L17.3,27.03z"/>
	</g>
	<g>
		<path class="st0" d="M48.75,50c-0.23,0-0.46-0.09-0.64-0.26L38.1,39.72c-0.35-0.35-0.35-0.92,0-1.27c0.35-0.35,0.92-0.35,1.27,0
			l10.02,10.02c0.35,0.35,0.35,0.92,0,1.27C49.21,49.91,48.98,50,48.75,50L48.75,50z"/>
	</g>
</g>
</svg>
