<?xml version="1.0" encoding="utf-8"?>
<!-- Generator: Adobe Illustrator 23.0.1, SVG Export Plug-In . SVG Version: 6.00 Build 0)  -->
<svg version="1.1" id="Capa_1" xmlns="http://www.w3.org/2000/svg" xmlns:xlink="http://www.w3.org/1999/xlink" x="0px" y="0px"
	 viewBox="0 0 60 60" style="enable-background:new 0 0 60 60;" xml:space="preserve">
<style type="text/css">
	.st0{fill:#A01127;stroke:#A01127;stroke-linecap:round;stroke-linejoin:round;stroke-miterlimit:10;}
</style>
<g>
	<g>
		<g>
			<path class="st0" d="M25.38,51.23c-0.6,0-1.09-0.49-1.09-1.09V35.69H9.85c-0.6,0-1.09-0.49-1.09-1.09s0.49-1.09,1.09-1.09h15.54
				c0.6,0,1.09,0.49,1.09,1.09v15.54C26.47,50.74,25.98,51.23,25.38,51.23L25.38,51.23z"/>
		</g>
		<g>
			<path class="st0" d="M6.09,55.01c-0.28,0-0.56-0.11-0.77-0.32c-0.43-0.42-0.43-1.12,0-1.54l19.29-19.31
				c0.42-0.43,1.12-0.43,1.54,0c0.43,0.42,0.43,1.12,0,1.54L6.86,54.69C6.65,54.9,6.37,55.01,6.09,55.01L6.09,55.01z"/>
		</g>
	</g>
	<g>
		<g>
			<path class="st0" d="M34.62,51.23c-0.6,0-1.09-0.49-1.09-1.09V34.6c0-0.6,0.49-1.09,1.09-1.09h15.53c0.6,0,1.09,0.49,1.09,1.09
				s-0.49,1.09-1.09,1.09H35.71v14.45C35.71,50.74,35.22,51.23,34.62,51.23L34.62,51.23z"/>
		</g>
		<g>
			<path class="st0" d="M53.91,55.01c-0.28,0-0.56-0.11-0.77-0.32L33.85,35.37c-0.43-0.43-0.43-1.12,0-1.54
				c0.43-0.43,1.12-0.43,1.54,0l19.29,19.31c0.43,0.43,0.43,1.12,0,1.54C54.47,54.9,54.19,55.01,53.91,55.01L53.91,55.01z"/>
		</g>
	</g>
	<g>
		<g>
			<path class="st0" d="M50.15,26.49H34.62c-0.6,0-1.09-0.49-1.09-1.09V9.86c0-0.6,0.49-1.09,1.09-1.09c0.6,0,1.09,0.49,1.09,1.09
				v14.45h14.44c0.6,0,1.09,0.49,1.09,1.09C51.24,26,50.75,26.49,50.15,26.49L50.15,26.49z"/>
		</g>
		<g>
			<path class="st0" d="M34.62,26.49c-0.28,0-0.56-0.11-0.77-0.32c-0.43-0.42-0.43-1.12,0-1.54L53.14,5.31
				c0.42-0.43,1.12-0.43,1.54,0c0.43,0.42,0.43,1.12,0,1.54L35.39,26.17C35.18,26.38,34.9,26.49,34.62,26.49L34.62,26.49z"/>
		</g>
	</g>
	<g>
		<g>
			<path class="st0" d="M25.38,26.49H9.85c-0.6,0-1.09-0.49-1.09-1.09c0-0.6,0.49-1.09,1.09-1.09h14.45V9.86
				c0-0.6,0.49-1.09,1.09-1.09s1.09,0.49,1.09,1.09V25.4C26.47,26,25.98,26.49,25.38,26.49L25.38,26.49z"/>
		</g>
		<g>
			<path class="st0" d="M25.38,26.49c-0.28,0-0.56-0.11-0.77-0.32L5.32,6.86c-0.43-0.43-0.43-1.12,0-1.54
				c0.43-0.43,1.12-0.43,1.54,0l19.29,19.31c0.43,0.43,0.43,1.12,0,1.54C25.94,26.38,25.66,26.49,25.38,26.49L25.38,26.49z"/>
		</g>
	</g>
</g>
</svg>
