<?xml version="1.0" encoding="utf-8"?>
<!-- Generator: Adobe Illustrator 23.0.1, SVG Export Plug-In . SVG Version: 6.00 Build 0)  -->
<svg version="1.1" id="Capa_1" xmlns="http://www.w3.org/2000/svg" xmlns:xlink="http://www.w3.org/1999/xlink" x="0px" y="0px"
	 viewBox="0 0 60 60" style="enable-background:new 0 0 60 60;" xml:space="preserve">
<style type="text/css">
	.st0{fill:#A01127;stroke:#A01127;stroke-linecap:round;stroke-linejoin:round;stroke-miterlimit:10;}
</style>
<g>
	<path class="st0" d="M54.26,24.44c0-3.37-1.7-6.47-4.44-8.29c-0.79-4.41-4.67-7.77-9.3-7.77c-0.14,0-0.28,0-0.41,0.01
		C38.34,6.26,35.73,5,32.89,5c-2.02,0-3.98,0.66-5.59,1.86c-0.89-0.24-1.8-0.37-2.71-0.37c-3.71,0-7.12,1.97-9.02,5.07
		c-5.5,0.53-9.82,5.17-9.82,10.8c0,3.21,1.43,6.24,3.87,8.3c1.44,3.43,4.75,5.67,8.53,5.67c0.48,0,0.97-0.04,1.46-0.12
		c1.24,0.86,2.71,1.32,4.23,1.32c0.35,0,0.71-0.02,1.06-0.07c1.24,2.43,3.44,4.64,5.6,6.79c2.01,1.99,4.08,4.06,4.81,5.81L37.36,55
		l2.93-4.47c2.22-3.39,1.86-7.01,0.69-9.91c0.09-0.04,0.18-0.08,0.28-0.13c0.66,0.19,1.36,0.28,2.05,0.28
		c4.33,0,7.84-3.52,7.84-7.84c0-0.41-0.03-0.81-0.09-1.21C53.07,29.86,54.26,27.23,54.26,24.44L54.26,24.44z M47.75,30.65
		c0.35,0.68,0.57,1.46,0.57,2.29c0,2.77-2.24,5.01-5.01,5.01c-0.86,0-1.66-0.24-2.36-0.63c-0.88,0.74-1.98,1.2-3.21,1.2
		c-0.51,0-0.99-0.1-1.46-0.24c0,0,4.97,5.63,1.64,10.7c-1.75-4.22-8.02-8.33-10.32-12.46c0.98-0.62,1.82-1.45,2.67-2.33
		c2.74-2.79,5.56-5.69,14.54-2.64l0.91-2.68c-10.66-3.63-14.61,0.39-17.48,3.34c-0.59,0.6-1.13,1.13-1.68,1.57
		c-0.76,0.57-1.7,0.93-2.73,0.93c-1.4,0-2.65-0.64-3.5-1.61c-0.68,0.25-1.42,0.4-2.2,0.4c-2.81,0-5.16-1.81-6.03-4.32l0.02-0.01
		c-0.42-2.05,0.14-3.75,1.6-4.92c2.2-1.74,5.84-1.86,9.25-0.3l1.18-2.58c-4.37-2-9.16-1.74-12.18,0.66
		c-1.29,1.02-2.14,2.36-2.54,3.88c-0.54-1.07-0.86-2.28-0.86-3.57c0-4.43,3.59-8.02,8.02-8.02c0.25,0,0.48,0.06,0.73,0.07
		c1.09-2.97,3.92-5.1,7.27-5.1c1.21,0,2.33,0.3,3.35,0.78c1.21-1.38,2.97-2.28,4.95-2.28c1.57,0,2.99,0.55,4.11,1.47
		c-1.35,0.79-2.36,1.83-2.98,3.15c-0.05,0.1-0.08,0.2-0.11,0.3H33.9c-0.74,1.39-2.25,2.54-3.77,2.83c-0.75,0.15-1.83,0.17-2.77-0.61
		l-1.81,2.18c1.07,0.89,2.38,1.35,3.79,1.35c0.43,0,0.89-0.05,1.34-0.13c0.97-0.19,1.89-0.59,2.74-1.11c0.19,1.41,0.64,2.68,1,3.55
		l2.61-1.11c-0.46-1.1-1.44-3.89-0.44-6.05c0.44-0.96,1.27-1.7,2.44-2.22c0.48-0.13,0.98-0.21,1.5-0.21c3.65,0,6.61,2.96,6.61,6.61
		c0,0.02-0.01,0.04-0.01,0.06c2.53,1.1,4.3,3.61,4.3,6.54C51.43,27.13,49.92,29.43,47.75,30.65L47.75,30.65z M47.75,30.65"/>
</g>
</svg>
