<?xml version="1.0" encoding="utf-8"?>
<!-- Generator: Adobe Illustrator 23.0.1, SVG Export Plug-In . SVG Version: 6.00 Build 0)  -->
<svg version="1.1" id="Capa_1" xmlns="http://www.w3.org/2000/svg" xmlns:xlink="http://www.w3.org/1999/xlink" x="0px" y="0px"
	 viewBox="0 0 125 90" style="enable-background:new 0 0 125 90;" xml:space="preserve">
<style type="text/css">
	.st0{fill:#FFFFFF;}
</style>
<g>
	<g>
		<path class="st0" d="M20.06,80.03v0.66c-0.46-0.23-0.89-0.34-1.28-0.34c-0.5,0-0.92,0.16-1.26,0.48
			c-0.34,0.32-0.51,0.72-0.51,1.19c0,0.48,0.17,0.88,0.52,1.2s0.79,0.48,1.31,0.48c0.38,0,0.79-0.12,1.21-0.36V84
			c-0.39,0.21-0.81,0.31-1.26,0.31c-0.66,0-1.23-0.22-1.7-0.67c-0.47-0.45-0.71-0.99-0.71-1.63c0-0.62,0.23-1.16,0.7-1.6
			c0.46-0.44,1.02-0.67,1.68-0.67C19.18,79.74,19.62,79.84,20.06,80.03z"/>
		<path class="st0" d="M20.55,82.77c0-0.38,0.15-0.72,0.45-1.01c0.3-0.29,0.64-0.44,1.03-0.44c0.4,0,0.75,0.15,1.05,0.44
			s0.45,0.63,0.45,1.02c0,0.39-0.15,0.73-0.44,1.03c-0.29,0.3-0.63,0.45-1.02,0.45c-0.41,0-0.77-0.15-1.07-0.44
			S20.55,83.16,20.55,82.77z M22.96,82.77c0-0.24-0.09-0.44-0.27-0.62c-0.18-0.17-0.39-0.26-0.64-0.26c-0.25,0-0.47,0.09-0.65,0.27
			c-0.18,0.18-0.27,0.39-0.27,0.63c0,0.23,0.09,0.44,0.28,0.61c0.19,0.17,0.4,0.26,0.65,0.26c0.24,0,0.45-0.09,0.64-0.27
			C22.87,83.22,22.96,83.01,22.96,82.77z"/>
		<path class="st0" d="M24.04,84.17v-2.78h0.57v0.46c0.17-0.19,0.32-0.32,0.46-0.41c0.14-0.09,0.29-0.13,0.46-0.13
			c0.25,0,0.47,0.08,0.64,0.25c0.18,0.17,0.27,0.37,0.27,0.6v2.01h-0.59v-1.83c0-0.15-0.05-0.28-0.15-0.37s-0.22-0.15-0.37-0.15
			c-0.2,0-0.36,0.08-0.5,0.25c-0.14,0.17-0.21,0.36-0.21,0.6v1.51H24.04z"/>
		<path class="st0" d="M28.85,81.72l-0.39,0.34c-0.1-0.07-0.19-0.13-0.26-0.16s-0.16-0.06-0.26-0.06c-0.24,0-0.36,0.09-0.36,0.26
			c0,0.13,0.15,0.25,0.45,0.37c0.3,0.12,0.52,0.25,0.65,0.39c0.13,0.14,0.2,0.31,0.2,0.51c0,0.23-0.1,0.44-0.29,0.61
			c-0.19,0.17-0.42,0.26-0.67,0.26c-0.39,0-0.72-0.18-0.97-0.54l0.46-0.22c0.16,0.16,0.33,0.24,0.51,0.24c0.12,0,0.23-0.03,0.32-0.1
			s0.14-0.14,0.14-0.23c0-0.16-0.16-0.29-0.48-0.42c-0.32-0.12-0.54-0.25-0.66-0.38c-0.12-0.13-0.18-0.28-0.18-0.47
			c0-0.23,0.09-0.42,0.26-0.58c0.17-0.15,0.39-0.23,0.65-0.23S28.52,81.45,28.85,81.72z"/>
		<path class="st0" d="M29.37,81.39h0.59v1.57c0,0.48,0.21,0.72,0.64,0.72c0.19,0,0.34-0.06,0.45-0.19s0.17-0.31,0.17-0.53v-1.57
			h0.58v1.66c0,0.35-0.11,0.63-0.34,0.86c-0.23,0.22-0.52,0.34-0.87,0.34c-0.36,0-0.65-0.11-0.87-0.34
			c-0.22-0.22-0.33-0.52-0.33-0.88V81.39z"/>
		<path class="st0" d="M32.57,79.8h0.59v4.37h-0.59V79.8z"/>
		<path class="st0" d="M34.19,80.58h0.59v0.81h0.58v0.54h-0.58v2.24h-0.59v-2.24h-0.46v-0.54h0.46V80.58z"/>
		<path class="st0" d="M35.71,82.77c0-0.38,0.15-0.72,0.45-1.01s0.64-0.44,1.03-0.44c0.4,0,0.75,0.15,1.05,0.44s0.45,0.63,0.45,1.02
			c0,0.39-0.15,0.73-0.44,1.03c-0.29,0.3-0.63,0.45-1.01,0.45c-0.41,0-0.77-0.15-1.07-0.44C35.87,83.51,35.71,83.16,35.71,82.77z
			 M38.12,82.77c0-0.24-0.09-0.44-0.27-0.62c-0.18-0.17-0.39-0.26-0.64-0.26c-0.25,0-0.47,0.09-0.65,0.27
			c-0.18,0.18-0.27,0.39-0.27,0.63c0,0.23,0.09,0.44,0.28,0.61c0.19,0.17,0.4,0.26,0.65,0.26c0.24,0,0.46-0.09,0.64-0.27
			S38.12,83.01,38.12,82.77z"/>
		<path class="st0" d="M39.97,81.39v0.57c0.13-0.23,0.26-0.39,0.38-0.5c0.12-0.1,0.29-0.15,0.49-0.15c0.06,0,0.14,0.01,0.24,0.04
			l-0.18,0.59c-0.11-0.02-0.19-0.03-0.22-0.03c-0.2,0-0.36,0.07-0.5,0.21c-0.13,0.14-0.2,0.31-0.2,0.52v1.54H39.4v-2.78H39.97z"/>
		<path class="st0" d="M41.58,80.88l0.45-0.94h0.79l-0.74,0.94H41.58z M41.67,81.39h0.58v2.78h-0.58V81.39z"/>
		<path class="st0" d="M45.46,81.39h0.59v2.78h-0.59v-0.55c-0.29,0.42-0.64,0.63-1.06,0.63c-0.37,0-0.68-0.14-0.94-0.43
			c-0.26-0.29-0.39-0.64-0.39-1.05c0-0.39,0.13-0.73,0.39-1.02c0.26-0.29,0.57-0.44,0.92-0.44c0.22,0,0.42,0.06,0.62,0.18
			s0.35,0.27,0.45,0.46V81.39z M45.54,82.79c0-0.25-0.09-0.47-0.27-0.65c-0.18-0.18-0.4-0.27-0.65-0.27c-0.25,0-0.46,0.09-0.65,0.27
			s-0.28,0.39-0.28,0.63c0,0.26,0.09,0.49,0.27,0.67c0.18,0.18,0.4,0.28,0.65,0.28c0.25,0,0.47-0.09,0.65-0.27
			C45.45,83.25,45.54,83.04,45.54,82.79z"/>
		<path class="st0" d="M48.88,79.88h0.58v4.29h-0.58V79.88z"/>
		<path class="st0" d="M50.24,84.17v-2.78h0.57v0.46c0.17-0.19,0.32-0.32,0.46-0.41c0.14-0.09,0.29-0.13,0.46-0.13
			c0.25,0,0.47,0.08,0.65,0.25c0.18,0.17,0.27,0.37,0.27,0.6v2.01h-0.59v-1.83c0-0.15-0.05-0.28-0.15-0.37s-0.22-0.15-0.37-0.15
			c-0.2,0-0.36,0.08-0.5,0.25s-0.21,0.36-0.21,0.6v1.51H50.24z"/>
		<path class="st0" d="M53.55,80.58h0.59v0.81h0.58v0.54h-0.58v2.24h-0.59v-2.24h-0.46v-0.54h0.46V80.58z"/>
		<path class="st0" d="M58.01,82.89h-2.37c0.05,0.29,0.17,0.49,0.35,0.62c0.18,0.13,0.38,0.2,0.6,0.2c0.33,0,0.61-0.14,0.83-0.42
			l0.43,0.32c-0.32,0.42-0.75,0.62-1.29,0.62c-0.41,0-0.76-0.14-1.04-0.42c-0.28-0.28-0.42-0.63-0.42-1.05
			c0-0.39,0.14-0.73,0.42-1.02c0.28-0.29,0.62-0.43,1.03-0.43c0.4,0,0.74,0.15,1.03,0.44S58.01,82.42,58.01,82.89z M55.7,82.42h1.7
			c-0.19-0.38-0.47-0.57-0.83-0.57C56.16,81.85,55.87,82.04,55.7,82.42z"/>
		<path class="st0" d="M60.99,81.39h0.57v2.67c0,0.39-0.14,0.73-0.41,1c-0.27,0.27-0.6,0.41-0.98,0.41c-0.29,0-0.56-0.08-0.8-0.24
			c-0.24-0.16-0.42-0.4-0.54-0.72h0.61c0.18,0.3,0.43,0.45,0.76,0.45c0.22,0,0.41-0.08,0.56-0.24c0.15-0.16,0.23-0.35,0.23-0.57
			v-0.53c-0.28,0.41-0.64,0.62-1.07,0.62c-0.35,0-0.66-0.15-0.93-0.44s-0.4-0.64-0.4-1.04s0.13-0.74,0.39-1.03s0.56-0.43,0.92-0.43
			c0.46,0,0.82,0.22,1.09,0.66V81.39z M61.07,82.77c0-0.26-0.09-0.48-0.27-0.65s-0.41-0.26-0.67-0.26c-0.25,0-0.46,0.09-0.65,0.27
			s-0.28,0.39-0.28,0.63c0,0.26,0.09,0.48,0.28,0.67c0.18,0.19,0.4,0.28,0.66,0.28c0.26,0,0.48-0.09,0.66-0.27
			C60.98,83.25,61.07,83.03,61.07,82.77z"/>
		<path class="st0" d="M63.14,81.39v0.57c0.13-0.23,0.26-0.39,0.38-0.5c0.12-0.1,0.29-0.15,0.49-0.15c0.06,0,0.14,0.01,0.24,0.04
			l-0.18,0.59c-0.11-0.02-0.19-0.03-0.22-0.03c-0.2,0-0.36,0.07-0.5,0.21c-0.13,0.14-0.2,0.31-0.2,0.52v1.54h-0.59v-2.78H63.14z"/>
		<path class="st0" d="M67.05,81.39h0.59v2.78h-0.59v-0.55c-0.29,0.42-0.64,0.63-1.06,0.63c-0.37,0-0.68-0.14-0.94-0.43
			c-0.26-0.29-0.39-0.64-0.39-1.05c0-0.39,0.13-0.73,0.39-1.02c0.26-0.29,0.57-0.44,0.92-0.44c0.22,0,0.42,0.06,0.62,0.18
			s0.35,0.27,0.45,0.46V81.39z M67.13,82.79c0-0.25-0.09-0.47-0.27-0.65c-0.18-0.18-0.4-0.27-0.65-0.27c-0.25,0-0.46,0.09-0.65,0.27
			s-0.28,0.39-0.28,0.63c0,0.26,0.09,0.49,0.27,0.67c0.18,0.18,0.4,0.28,0.65,0.28c0.25,0,0.47-0.09,0.65-0.27
			C67.04,83.25,67.13,83.04,67.13,82.79z"/>
		<path class="st0" d="M68.6,79.8h0.59v4.37H68.6V79.8z"/>
		<path class="st0" d="M74.71,82.89h-2.37c0.05,0.29,0.17,0.49,0.35,0.62c0.18,0.13,0.38,0.2,0.6,0.2c0.33,0,0.61-0.14,0.83-0.42
			l0.43,0.32c-0.32,0.42-0.75,0.62-1.29,0.62c-0.41,0-0.76-0.14-1.04-0.42c-0.28-0.28-0.42-0.63-0.42-1.05
			c0-0.39,0.14-0.73,0.42-1.02c0.28-0.29,0.62-0.43,1.03-0.43c0.4,0,0.74,0.15,1.03,0.44S74.71,82.42,74.71,82.89z M72.4,82.42h1.7
			c-0.19-0.38-0.47-0.57-0.83-0.57C72.86,81.85,72.57,82.04,72.4,82.42z"/>
		<path class="st0" d="M75.27,84.17v-2.78h0.57v0.46c0.17-0.19,0.32-0.32,0.46-0.41c0.14-0.09,0.29-0.13,0.46-0.13
			c0.25,0,0.47,0.08,0.65,0.25c0.18,0.17,0.27,0.37,0.27,0.6v2.01h-0.59v-1.83c0-0.15-0.05-0.28-0.15-0.37s-0.22-0.15-0.37-0.15
			c-0.2,0-0.36,0.08-0.5,0.25s-0.21,0.36-0.21,0.6v1.51H75.27z"/>
		<path class="st0" d="M82.98,80.36l-0.47,0.38c-0.13-0.13-0.24-0.23-0.34-0.29c-0.1-0.06-0.25-0.1-0.44-0.1
			c-0.21,0-0.38,0.05-0.51,0.14c-0.13,0.1-0.2,0.22-0.2,0.37c0,0.13,0.06,0.24,0.17,0.34s0.31,0.21,0.58,0.33s0.49,0.23,0.64,0.33
			c0.15,0.1,0.28,0.21,0.38,0.34s0.17,0.25,0.22,0.39c0.05,0.14,0.07,0.28,0.07,0.43c0,0.36-0.13,0.66-0.39,0.91
			c-0.26,0.25-0.57,0.38-0.94,0.38c-0.36,0-0.68-0.1-0.95-0.29c-0.28-0.2-0.49-0.49-0.63-0.88l0.59-0.17
			c0.21,0.48,0.54,0.72,0.98,0.72c0.21,0,0.39-0.06,0.53-0.19s0.21-0.29,0.21-0.48c0-0.12-0.04-0.23-0.11-0.35
			c-0.07-0.12-0.17-0.21-0.28-0.29c-0.11-0.08-0.29-0.16-0.53-0.26s-0.42-0.19-0.55-0.27c-0.13-0.08-0.24-0.18-0.34-0.29
			s-0.16-0.23-0.21-0.34s-0.07-0.23-0.07-0.36c0-0.31,0.12-0.57,0.37-0.79c0.25-0.22,0.55-0.32,0.9-0.32c0.23,0,0.47,0.05,0.71,0.15
			C82.62,80,82.82,80.15,82.98,80.36z"/>
		<path class="st0" d="M86.52,82.89h-2.37c0.05,0.29,0.17,0.49,0.35,0.62c0.18,0.13,0.38,0.2,0.6,0.2c0.33,0,0.61-0.14,0.83-0.42
			l0.43,0.32c-0.32,0.42-0.75,0.62-1.29,0.62c-0.41,0-0.76-0.14-1.04-0.42c-0.28-0.28-0.42-0.63-0.42-1.05
			c0-0.39,0.14-0.73,0.42-1.02c0.28-0.29,0.62-0.43,1.03-0.43c0.4,0,0.74,0.15,1.03,0.44S86.53,82.42,86.52,82.89z M84.21,82.42h1.7
			c-0.19-0.38-0.47-0.57-0.83-0.57C84.67,81.85,84.39,82.04,84.21,82.42z"/>
		<path class="st0" d="M89.51,81.39h0.57v2.67c0,0.39-0.14,0.73-0.41,1c-0.27,0.27-0.6,0.41-0.98,0.41c-0.29,0-0.56-0.08-0.8-0.24
			c-0.24-0.16-0.42-0.4-0.54-0.72h0.61c0.18,0.3,0.43,0.45,0.76,0.45c0.22,0,0.41-0.08,0.56-0.24c0.15-0.16,0.23-0.35,0.23-0.57
			v-0.53c-0.28,0.41-0.64,0.62-1.07,0.62c-0.35,0-0.66-0.15-0.93-0.44s-0.4-0.64-0.4-1.04s0.13-0.74,0.39-1.03s0.56-0.43,0.92-0.43
			c0.46,0,0.82,0.22,1.09,0.66V81.39z M89.59,82.77c0-0.26-0.09-0.48-0.27-0.65s-0.41-0.26-0.67-0.26c-0.25,0-0.46,0.09-0.65,0.27
			s-0.28,0.39-0.28,0.63c0,0.26,0.09,0.48,0.28,0.67c0.18,0.19,0.4,0.28,0.66,0.28c0.26,0,0.48-0.09,0.66-0.27
			C89.5,83.25,89.59,83.03,89.59,82.77z"/>
		<path class="st0" d="M90.9,81.39h0.58v1.57c0,0.48,0.21,0.72,0.64,0.72c0.19,0,0.34-0.06,0.45-0.19c0.11-0.13,0.16-0.31,0.16-0.53
			v-1.57h0.58v1.66c0,0.35-0.11,0.63-0.34,0.86c-0.23,0.22-0.52,0.34-0.87,0.34c-0.36,0-0.65-0.11-0.87-0.34
			c-0.22-0.22-0.33-0.52-0.33-0.88V81.39z"/>
		<path class="st0" d="M94.67,81.39v0.57c0.13-0.23,0.26-0.39,0.38-0.5c0.12-0.1,0.29-0.15,0.49-0.15c0.06,0,0.14,0.01,0.24,0.04
			l-0.18,0.59c-0.11-0.02-0.19-0.03-0.22-0.03c-0.2,0-0.36,0.07-0.5,0.21c-0.13,0.14-0.2,0.31-0.2,0.52v1.54H94.1v-2.78H94.67z"/>
		<path class="st0" d="M96.21,80.48c0-0.12,0.04-0.23,0.13-0.31c0.09-0.09,0.2-0.13,0.32-0.13c0.12,0,0.23,0.04,0.31,0.13
			c0.09,0.09,0.13,0.19,0.13,0.31c0,0.12-0.04,0.23-0.13,0.32c-0.09,0.09-0.19,0.13-0.31,0.13c-0.12,0-0.23-0.04-0.32-0.13
			C96.25,80.71,96.21,80.6,96.21,80.48z M96.37,81.39h0.58v2.78h-0.58V81.39z"/>
		<path class="st0" d="M100.16,79.8h0.58v4.37h-0.57v-0.58c-0.28,0.44-0.64,0.66-1.09,0.66c-0.36,0-0.67-0.14-0.93-0.43
			c-0.26-0.29-0.39-0.64-0.39-1.04c0-0.4,0.13-0.74,0.39-1.03s0.58-0.43,0.94-0.43c0.22,0,0.42,0.06,0.61,0.18
			c0.19,0.12,0.34,0.28,0.45,0.47V79.8z M100.23,82.77c0-0.25-0.09-0.47-0.27-0.65c-0.18-0.18-0.4-0.27-0.65-0.27
			c-0.26,0-0.48,0.09-0.66,0.27c-0.18,0.18-0.27,0.4-0.27,0.66c0,0.25,0.09,0.46,0.28,0.65c0.18,0.19,0.4,0.28,0.64,0.28
			c0.26,0,0.48-0.09,0.66-0.27C100.13,83.25,100.23,83.03,100.23,82.77z"/>
		<path class="st0" d="M103.97,81.39h0.59v2.78h-0.59v-0.55c-0.29,0.42-0.64,0.63-1.06,0.63c-0.37,0-0.68-0.14-0.94-0.43
			c-0.26-0.29-0.39-0.64-0.39-1.05c0-0.39,0.13-0.73,0.39-1.02c0.26-0.29,0.57-0.44,0.92-0.44c0.22,0,0.42,0.06,0.62,0.18
			s0.35,0.27,0.45,0.46V81.39z M104.05,82.79c0-0.25-0.09-0.47-0.27-0.65c-0.18-0.18-0.4-0.27-0.65-0.27
			c-0.25,0-0.46,0.09-0.65,0.27s-0.28,0.39-0.28,0.63c0,0.26,0.09,0.49,0.27,0.67c0.18,0.18,0.4,0.28,0.65,0.28
			c0.25,0,0.47-0.09,0.65-0.27C103.96,83.25,104.05,83.04,104.05,82.79z"/>
		<path class="st0" d="M107.77,79.8h0.58v4.37h-0.57v-0.58c-0.28,0.44-0.64,0.66-1.09,0.66c-0.36,0-0.67-0.14-0.93-0.43
			c-0.26-0.29-0.39-0.64-0.39-1.04c0-0.4,0.13-0.74,0.39-1.03s0.58-0.43,0.94-0.43c0.22,0,0.42,0.06,0.61,0.18
			c0.19,0.12,0.34,0.28,0.45,0.47V79.8z M107.83,82.77c0-0.25-0.09-0.47-0.27-0.65c-0.18-0.18-0.4-0.27-0.65-0.27
			c-0.26,0-0.48,0.09-0.66,0.27c-0.18,0.18-0.27,0.4-0.27,0.66c0,0.25,0.09,0.46,0.28,0.65c0.18,0.19,0.4,0.28,0.64,0.28
			c0.26,0,0.48-0.09,0.66-0.27C107.74,83.25,107.83,83.03,107.83,82.77z"/>
	</g>
	<g>
		<path class="st0" d="M16.92,67.82v2.89c-1.28-0.77-2.4-1.15-3.36-1.15s-1.73,0.33-2.31,0.99s-0.87,1.55-0.87,2.67
			c0,1.06,0.3,1.9,0.91,2.54c0.61,0.63,1.42,0.95,2.44,0.95c0.89,0,1.95-0.36,3.19-1.07v2.87c-1.39,0.46-2.55,0.69-3.47,0.69
			c-1.59,0-2.95-0.58-4.06-1.75c-1.11-1.17-1.67-2.6-1.67-4.28c0-1.71,0.57-3.16,1.7-4.35s2.51-1.78,4.13-1.78
			C14.6,67.03,15.72,67.29,16.92,67.82z"/>
		<path class="st0" d="M18.52,75.17c0-1.2,0.38-2.17,1.15-2.93c0.76-0.76,1.74-1.14,2.94-1.14c1.11,0,2.05,0.39,2.8,1.16
			c0.75,0.77,1.13,1.73,1.13,2.87c0,1.17-0.38,2.13-1.13,2.9c-0.75,0.77-1.7,1.15-2.84,1.15c-1.28,0-2.28-0.41-2.99-1.22
			S18.52,76.22,18.52,75.17z M24.27,75.17c0-0.52-0.17-0.98-0.51-1.37c-0.34-0.39-0.74-0.59-1.2-0.59c-0.48,0-0.88,0.18-1.23,0.55
			c-0.34,0.37-0.51,0.81-0.51,1.32c0,0.56,0.17,1.03,0.51,1.42c0.34,0.39,0.75,0.59,1.23,0.59c0.46,0,0.86-0.19,1.2-0.57
			C24.09,76.14,24.27,75.69,24.27,75.17z"/>
		<path class="st0" d="M31.02,71.28v0.92c0.79-0.74,1.61-1.11,2.48-1.11c0.74,0,1.35,0.3,1.83,0.91s0.73,1.38,0.73,2.33v4.71h-2.34
			v-4.34c0-0.45-0.12-0.82-0.37-1.13s-0.54-0.46-0.89-0.46c-0.42,0-0.77,0.19-1.04,0.58s-0.41,0.89-0.41,1.5v3.84h-2.31v-7.76H31.02
			z"/>
		<path class="st0" d="M38.33,68.62h2.31v2.66h1.11v2.12h-1.11v5.64h-2.31V73.4h-0.88v-2.12h0.88V68.62z"/>
		<path class="st0" d="M45.33,71.28v1.15h0.04c0.23-0.38,0.49-0.69,0.8-0.92c0.3-0.22,0.58-0.34,0.84-0.34
			c0.16,0,0.3,0.01,0.42,0.04v2.53c-0.19-0.04-0.38-0.05-0.57-0.05c-0.48,0-0.84,0.17-1.11,0.5c-0.26,0.33-0.39,0.8-0.39,1.4v3.45
			h-2.34v-7.76H45.33z"/>
		<path class="st0" d="M48.71,75.17c0-1.2,0.38-2.17,1.15-2.93s1.74-1.14,2.94-1.14c1.11,0,2.05,0.39,2.8,1.16
			c0.75,0.77,1.13,1.73,1.13,2.87c0,1.17-0.38,2.13-1.13,2.9c-0.75,0.77-1.7,1.15-2.84,1.15c-1.28,0-2.28-0.41-2.98-1.22
			C49.06,77.16,48.71,76.22,48.71,75.17z M54.45,75.17c0-0.52-0.17-0.98-0.51-1.37s-0.74-0.59-1.2-0.59c-0.47,0-0.88,0.18-1.23,0.55
			C51.17,74.13,51,74.57,51,75.08c0,0.56,0.17,1.03,0.51,1.42c0.34,0.39,0.75,0.59,1.23,0.59c0.46,0,0.86-0.19,1.2-0.57
			S54.45,75.69,54.45,75.17z"/>
		<path class="st0" d="M58.83,66.99h2.31v12.04h-2.31V66.99z"/>
		<path class="st0" d="M63.6,67.19h2.55v4.56h4.19v-4.56h2.55v11.84h-2.55v-4.71h-4.19v4.71H63.6V67.19z"/>
		<path class="st0" d="M75.23,71.29h2.34v3.72c0,0.54,0.14,0.98,0.41,1.34c0.27,0.36,0.61,0.54,1.01,0.54
			c0.43,0,0.78-0.17,1.07-0.52s0.44-0.78,0.44-1.3v-3.77h2.34v4.51c0,0.96-0.37,1.76-1.09,2.4s-1.64,0.97-2.72,0.97
			c-1.15,0-2.08-0.33-2.77-0.97s-1.04-1.51-1.04-2.59V71.29z"/>
		<path class="st0" d="M87.48,71.28v1.24c0.11-0.07,0.27-0.21,0.48-0.42c0.21-0.2,0.41-0.38,0.61-0.52c0.2-0.14,0.43-0.25,0.7-0.34
			c0.27-0.09,0.52-0.13,0.74-0.13c0.35,0,0.74,0.12,1.15,0.37c0.42,0.25,0.76,0.69,1.04,1.33c0.48-0.61,0.95-1.05,1.41-1.31
			s0.89-0.39,1.29-0.39c0.7,0,1.3,0.29,1.79,0.87c0.49,0.58,0.73,1.29,0.73,2.14v4.92h-2.31v-4.3c0-0.43-0.12-0.79-0.35-1.08
			c-0.23-0.29-0.52-0.44-0.85-0.44c-0.4,0-0.74,0.17-1.03,0.5c-0.29,0.33-0.43,0.72-0.43,1.18v4.14h-2.29v-4.19
			c0-0.45-0.12-0.83-0.36-1.14s-0.52-0.46-0.86-0.46c-0.4,0-0.74,0.17-1.03,0.51c-0.29,0.34-0.43,0.75-0.43,1.22v4.07h-2.33v-7.76
			H87.48z"/>
		<path class="st0" d="M104.82,79.03v-1.33h-0.04c-0.36,0.52-0.72,0.89-1.09,1.12c-0.37,0.23-0.82,0.35-1.36,0.35
			c-0.91,0-1.68-0.39-2.32-1.17c-0.64-0.78-0.96-1.73-0.96-2.85c0-1.11,0.34-2.05,1.02-2.85c0.68-0.79,1.49-1.19,2.42-1.19
			c0.44,0,0.84,0.1,1.2,0.3s0.73,0.51,1.13,0.95v-1.07h2.31v7.74H104.82z M103.12,73.43c-0.46,0-0.84,0.18-1.14,0.55
			c-0.31,0.36-0.46,0.82-0.46,1.38c0,0.52,0.15,0.93,0.44,1.25c0.29,0.32,0.67,0.47,1.15,0.47c0.46,0,0.85-0.18,1.17-0.55
			c0.33-0.36,0.49-0.8,0.49-1.32c0-0.48-0.16-0.9-0.49-1.25C103.95,73.61,103.57,73.43,103.12,73.43z"/>
		<path class="st0" d="M111.91,71.28v0.92c0.79-0.74,1.61-1.11,2.48-1.11c0.74,0,1.35,0.3,1.83,0.91s0.73,1.38,0.73,2.33v4.71h-2.35
			v-4.34c0-0.45-0.12-0.82-0.37-1.13c-0.24-0.31-0.54-0.46-0.89-0.46c-0.42,0-0.77,0.19-1.04,0.58s-0.41,0.89-0.41,1.5v3.84h-2.31
			v-7.76H111.91z"/>
	</g>
	<path class="st0" d="M119.24,28.49c-3.07,3.56-22.04,24.83-53.05,25.1c-0.01,0-0.02,0-0.02,0v1.64c0.09,0,0.19,0.01,0.28,0.01
		C99,55.62,119.1,33.1,122.17,29.53l0.33-1.04H119.24z"/>
	<path class="st0" d="M122.17,27.83C119.1,24.45,99,3.08,66.45,3.44c-0.09,0-0.19,0.01-0.28,0.01V5c0.01,0,0.02,0,0.02,0
		c31.01,0.25,49.98,20.44,53.05,23.82h3.26L122.17,27.83z"/>
	<g>
		<path class="st0" d="M71.28,27.22c-0.01-0.02-0.01-0.04-0.02-0.05C71.26,27.18,71.27,27.2,71.28,27.22z"/>
		<path class="st0" d="M70.87,31.63C70.87,31.62,70.87,31.62,70.87,31.63C70.87,31.62,70.87,31.62,70.87,31.63z"/>
		<path class="st0" d="M61.23,26.42c0-0.01,0.01-0.01,0.01-0.02C61.24,26.41,61.23,26.42,61.23,26.42z"/>
		<path class="st0" d="M71.5,28.14c-0.01-0.05-0.01-0.09-0.02-0.14C71.48,28.05,71.49,28.09,71.5,28.14z"/>
		<path class="st0" d="M71.1,31.17c0.01-0.01,0.01-0.02,0.02-0.04C71.11,31.14,71.1,31.15,71.1,31.17z"/>
		<path class="st0" d="M71.52,29.65c0.01-0.04,0.01-0.08,0.02-0.12C71.53,29.57,71.52,29.61,71.52,29.65z"/>
		<path class="st0" d="M71.28,30.68c0.01-0.02,0.02-0.04,0.02-0.07C71.3,30.64,71.29,30.66,71.28,30.68z"/>
		<path class="st0" d="M51.49,29.8l10.65-4.64c1-1.03,2.39-1.68,3.94-1.68c1.79,0,3.37,0.86,4.37,2.19l8.25,3.89l10.5-2.9
			C88.11,14.89,78.22,5.69,66.17,5.69c-12.1,0-22.03,9.29-23.05,21.12L51.49,29.8z"/>
		<path class="st0" d="M71.42,30.19c0.01-0.04,0.02-0.07,0.03-0.11C71.44,30.12,71.43,30.15,71.42,30.19z"/>
		<path class="st0" d="M61,26.94c0.01-0.02,0.02-0.05,0.03-0.07C61.01,26.9,61,26.92,61,26.94z"/>
		<path class="st0" d="M61,30.99c-0.02-0.04-0.03-0.09-0.05-0.14C60.96,30.9,60.98,30.94,61,30.99z"/>
		<path class="st0" d="M60.71,30.02c-0.02-0.1-0.03-0.19-0.04-0.29C60.68,29.83,60.69,29.92,60.71,30.02z"/>
		<path class="st0" d="M61.2,31.43c-0.01-0.03-0.03-0.06-0.04-0.08C61.17,31.38,61.18,31.41,61.2,31.43z"/>
		<path class="st0" d="M60.83,30.52c-0.02-0.07-0.03-0.13-0.05-0.2C60.8,30.38,60.81,30.45,60.83,30.52z"/>
		<path class="st0" d="M61.71,32.25c0-0.01-0.01-0.01-0.01-0.02C61.7,32.24,61.7,32.24,61.71,32.25z"/>
		<path class="st0" d="M60.81,27.51c0.01-0.05,0.02-0.1,0.04-0.15C60.83,27.41,60.82,27.46,60.81,27.51z"/>
		<path class="st0" d="M61.44,31.85c-0.01-0.01-0.02-0.03-0.03-0.04C61.42,31.82,61.43,31.84,61.44,31.85z"/>
		<path class="st0" d="M60.61,28.96c0-0.19,0.01-0.37,0.03-0.55C60.62,28.59,60.61,28.78,60.61,28.96z"/>
		<path class="st0" d="M60.67,28.14c0.01-0.09,0.02-0.18,0.04-0.26C60.7,27.96,60.69,28.05,60.67,28.14z"/>
		<path class="st0" d="M60.61,28.96c0,0.18,0.01,0.36,0.03,0.54C60.62,29.32,60.61,29.14,60.61,28.96z"/>
		<path class="st0" d="M79.08,35.22L69.9,32.9c0,0,0,0,0,0c-0.99,0.96-2.33,1.55-3.81,1.55c-1.62,0-3.07-0.71-4.07-1.82c0,0,0,0,0,0
			l-10.64,2.6l-8.18-3.6c1.38,11.46,11.14,20.35,22.97,20.35c12.12,0,22.06-9.32,23.06-21.19L79.08,35.22z"/>
	</g>
	<path class="st0" d="M2.5,55.25h63.67v-0.01C34.66,54.75,15.4,33.1,12.26,29.44l0-0.61c2.98,3.42,21.65,24.07,51.88,24.73
		c-11.59-0.81-20.88-10.34-21.88-22.36l-4.18-1.84L23.3,34.24L12.58,28.7l10.47,3.69L38.07,25l4.21,1.51
		C43.3,16.22,50.41,7.82,59.78,5.28C32.07,7.65,15.02,25.42,12.17,28.49l0-0.57c3.16-3.46,22.44-23.86,53.99-24.46V3.43H2.5V55.25z"
		/>
	<path class="st0" d="M106.53,30.79l-12.68-5.42l-4.64,1.28c0.07,0.72,0.11,1.44,0.11,2.18c0,0.66-0.03,1.31-0.09,1.95l4.5-1.97
		l13.05,3.57l11.57-3.32L106.53,30.79z"/>
</g>
</svg>
