<?xml version="1.0" encoding="utf-8"?>
<!-- Generator: Adobe Illustrator 23.0.1, SVG Export Plug-In . SVG Version: 6.00 Build 0)  -->
<svg version="1.1" id="Capa_1" xmlns="http://www.w3.org/2000/svg" xmlns:xlink="http://www.w3.org/1999/xlink" x="0px" y="0px"
	 viewBox="0 0 510 84" style="enable-background:new 0 0 510 84;" xml:space="preserve">
<style type="text/css">
	.st0{fill:#5B5B5F;}
	.st1{fill:#211915;}
	.st2{fill:#BE0811;}
	.st3{fill:#FFFFFF;}
</style>
<g>
	<g>
		<g>
			<path class="st0" d="M227.9,64.18v1.9c-1.33-0.65-2.55-0.98-3.66-0.98c-1.43,0-2.63,0.46-3.61,1.38
				c-0.98,0.92-1.47,2.06-1.47,3.4c0,1.37,0.5,2.51,1.5,3.43c1,0.92,2.25,1.37,3.76,1.37c1.09,0,2.25-0.34,3.48-1.03v1.92
				c-1.11,0.59-2.32,0.89-3.62,0.89c-1.9,0-3.53-0.64-4.89-1.93c-1.35-1.29-2.03-2.84-2.03-4.66c0-1.79,0.66-3.32,1.99-4.59
				c1.33-1.27,2.93-1.91,4.8-1.91C225.36,63.37,226.61,63.64,227.9,64.18z"/>
			<path class="st0" d="M229.29,72.04c0-1.09,0.43-2.05,1.29-2.9c0.86-0.85,1.84-1.27,2.96-1.27c1.15,0,2.15,0.42,3,1.25
				c0.86,0.83,1.29,1.81,1.29,2.92c0,1.12-0.42,2.11-1.26,2.96c-0.84,0.85-1.81,1.28-2.91,1.28c-1.18,0-2.2-0.42-3.07-1.26
				C229.72,74.17,229.29,73.18,229.29,72.04z M236.2,72.04c0-0.68-0.26-1.27-0.77-1.77c-0.51-0.5-1.12-0.75-1.83-0.75
				c-0.73,0-1.35,0.25-1.88,0.76c-0.52,0.51-0.79,1.11-0.79,1.81c0,0.67,0.26,1.26,0.8,1.76c0.53,0.5,1.15,0.75,1.87,0.75
				c0.69,0,1.3-0.26,1.83-0.77C235.94,73.33,236.2,72.73,236.2,72.04z"/>
			<path class="st0" d="M239.31,76.06v-7.96h1.64v1.32c0.48-0.53,0.92-0.93,1.31-1.17c0.39-0.25,0.83-0.37,1.31-0.37
				c0.72,0,1.34,0.24,1.85,0.71c0.51,0.48,0.77,1.05,0.77,1.72v5.75h-1.68v-5.26c0-0.43-0.14-0.79-0.42-1.07s-0.64-0.42-1.07-0.42
				c-0.56,0-1.04,0.24-1.45,0.71c-0.41,0.47-0.61,1.04-0.61,1.71v4.33H239.31z"/>
			<path class="st0" d="M253.08,69.04l-1.12,0.98c-0.29-0.21-0.54-0.36-0.75-0.47c-0.21-0.11-0.46-0.16-0.75-0.16
				c-0.68,0-1.02,0.25-1.02,0.75c0,0.36,0.43,0.71,1.3,1.05c0.86,0.34,1.49,0.71,1.87,1.12c0.38,0.41,0.57,0.89,0.57,1.47
				c0,0.67-0.27,1.25-0.82,1.75c-0.55,0.5-1.19,0.75-1.93,0.75c-1.12,0-2.05-0.52-2.77-1.56l1.32-0.64
				c0.46,0.45,0.95,0.68,1.45,0.68c0.35,0,0.65-0.1,0.91-0.29c0.26-0.19,0.39-0.41,0.39-0.66c0-0.44-0.46-0.84-1.37-1.2
				c-0.91-0.36-1.55-0.71-1.9-1.08c-0.35-0.36-0.53-0.81-0.53-1.35c0-0.66,0.25-1.21,0.75-1.65c0.5-0.44,1.12-0.66,1.88-0.66
				C251.31,67.87,252.15,68.26,253.08,69.04z"/>
			<path class="st0" d="M254.57,68.09h1.68v4.49c0,1.38,0.61,2.08,1.82,2.08c0.54,0,0.97-0.19,1.28-0.56
				c0.31-0.37,0.47-0.88,0.47-1.52v-4.49h1.66v4.76c0,1-0.32,1.82-0.98,2.46c-0.65,0.64-1.48,0.96-2.49,0.96
				c-1.03,0-1.86-0.32-2.5-0.96c-0.64-0.64-0.96-1.48-0.96-2.52V68.09z"/>
			<path class="st0" d="M263.75,63.53h1.68v12.53h-1.68V63.53z"/>
			<path class="st0" d="M268.39,65.77h1.68v2.32h1.66v1.53h-1.66v6.43h-1.68v-6.43h-1.32v-1.55h1.32V65.77z"/>
			<path class="st0" d="M272.76,72.04c0-1.09,0.43-2.05,1.29-2.9c0.86-0.85,1.84-1.27,2.96-1.27c1.15,0,2.15,0.42,3,1.25
				c0.86,0.83,1.29,1.81,1.29,2.92c0,1.12-0.42,2.11-1.26,2.96c-0.84,0.85-1.81,1.28-2.91,1.28c-1.18,0-2.2-0.42-3.07-1.26
				C273.2,74.17,272.76,73.18,272.76,72.04z M279.68,72.04c0-0.68-0.26-1.27-0.77-1.77c-0.51-0.5-1.12-0.75-1.83-0.75
				c-0.73,0-1.35,0.25-1.88,0.76c-0.52,0.51-0.79,1.11-0.79,1.81c0,0.67,0.26,1.26,0.8,1.76c0.53,0.5,1.15,0.75,1.87,0.75
				c0.69,0,1.3-0.26,1.83-0.77C279.42,73.33,279.68,72.73,279.68,72.04z"/>
			<path class="st0" d="M284.97,68.09v1.64c0.37-0.66,0.74-1.13,1.1-1.42c0.36-0.29,0.82-0.44,1.4-0.44c0.16,0,0.39,0.04,0.69,0.12
				l-0.51,1.68c-0.32-0.06-0.54-0.1-0.64-0.1c-0.57,0-1.04,0.2-1.42,0.59c-0.38,0.4-0.58,0.89-0.58,1.48v4.41h-1.68v-7.96H284.97z"
				/>
			<path class="st0" d="M289.57,66.62l1.28-2.68h2.28L291,66.62H289.57z M289.84,68.09h1.66v7.96h-1.66V68.09z"/>
			<path class="st0" d="M300.72,68.09h1.68v7.96h-1.68v-1.58c-0.82,1.2-1.83,1.8-3.04,1.8c-1.05,0-1.95-0.41-2.69-1.24
				c-0.74-0.82-1.12-1.82-1.12-3c0-1.11,0.37-2.09,1.12-2.92c0.75-0.83,1.63-1.25,2.64-1.25c0.62,0,1.22,0.17,1.78,0.51
				c0.56,0.34,0.99,0.79,1.31,1.33V68.09z M300.95,72.1c0-0.73-0.26-1.35-0.78-1.87c-0.52-0.52-1.15-0.78-1.88-0.78
				c-0.71,0-1.33,0.26-1.85,0.77c-0.53,0.52-0.79,1.12-0.79,1.81c0,0.75,0.26,1.39,0.78,1.92c0.51,0.53,1.14,0.79,1.87,0.79
				c0.73,0,1.36-0.26,1.88-0.79C300.69,73.44,300.95,72.82,300.95,72.1z"/>
			<path class="st0" d="M310.51,63.76h1.66v12.3h-1.66V63.76z"/>
			<path class="st0" d="M314.4,76.06v-7.96h1.64v1.32c0.48-0.53,0.92-0.93,1.31-1.17c0.39-0.25,0.83-0.37,1.31-0.37
				c0.72,0,1.34,0.24,1.85,0.71c0.51,0.48,0.77,1.05,0.77,1.72v5.75h-1.68v-5.26c0-0.43-0.14-0.79-0.42-1.07
				c-0.28-0.28-0.64-0.42-1.07-0.42c-0.56,0-1.04,0.24-1.45,0.71c-0.41,0.47-0.61,1.04-0.61,1.71v4.33H314.4z"/>
			<path class="st0" d="M323.91,65.77h1.68v2.32h1.66v1.53h-1.66v6.43h-1.68v-6.43h-1.32v-1.55h1.32V65.77z"/>
			<path class="st0" d="M336.68,72.4h-6.8c0.15,0.82,0.48,1.41,1.01,1.79c0.52,0.38,1.09,0.56,1.71,0.56c0.95,0,1.75-0.4,2.39-1.19
				l1.23,0.93c-0.92,1.19-2.15,1.79-3.7,1.79c-1.18,0-2.18-0.41-2.97-1.22c-0.8-0.81-1.2-1.82-1.2-3.02c0-1.13,0.4-2.1,1.21-2.93
				c0.81-0.83,1.79-1.24,2.96-1.24c1.14,0,2.13,0.42,2.94,1.26C336.29,69.97,336.69,71.06,336.68,72.4z M330.06,71.06h4.87
				c-0.54-1.09-1.34-1.64-2.39-1.64C331.38,69.41,330.55,69.96,330.06,71.06z"/>
			<path class="st0" d="M345.24,68.09h1.64v7.65c0,1.13-0.39,2.08-1.16,2.87c-0.78,0.79-1.71,1.18-2.81,1.18
				c-0.84,0-1.61-0.23-2.31-0.68c-0.7-0.45-1.22-1.14-1.55-2.07h1.74c0.52,0.86,1.25,1.29,2.17,1.29c0.63,0,1.17-0.23,1.61-0.68
				c0.44-0.45,0.66-1,0.66-1.64v-1.51c-0.81,1.18-1.83,1.77-3.07,1.77c-1.02,0-1.9-0.42-2.66-1.26c-0.76-0.84-1.13-1.83-1.13-2.98
				c0-1.15,0.37-2.13,1.11-2.94c0.74-0.82,1.61-1.23,2.63-1.23c1.31,0,2.35,0.63,3.13,1.9V68.09z M345.48,72.06
				c0-0.75-0.26-1.37-0.78-1.87c-0.52-0.5-1.16-0.75-1.92-0.75c-0.7,0-1.32,0.26-1.85,0.78c-0.53,0.52-0.8,1.12-0.8,1.81
				c0,0.74,0.26,1.38,0.79,1.91c0.53,0.53,1.16,0.8,1.89,0.8c0.74,0,1.37-0.26,1.9-0.78C345.21,73.43,345.48,72.8,345.48,72.06z"/>
			<path class="st0" d="M351.39,68.09v1.64c0.37-0.66,0.74-1.13,1.09-1.42c0.36-0.29,0.82-0.44,1.4-0.44c0.16,0,0.39,0.04,0.69,0.12
				l-0.51,1.68c-0.32-0.06-0.54-0.1-0.64-0.1c-0.57,0-1.04,0.2-1.42,0.59c-0.38,0.4-0.58,0.89-0.58,1.48v4.41h-1.68v-7.96H351.39z"
				/>
			<path class="st0" d="M362.62,68.09h1.68v7.96h-1.68v-1.58c-0.82,1.2-1.83,1.8-3.04,1.8c-1.05,0-1.94-0.41-2.69-1.24
				c-0.74-0.82-1.12-1.82-1.12-3c0-1.11,0.37-2.09,1.12-2.92c0.75-0.83,1.63-1.25,2.64-1.25c0.63,0,1.22,0.17,1.78,0.51
				c0.56,0.34,0.99,0.79,1.3,1.33V68.09z M362.85,72.1c0-0.73-0.26-1.35-0.78-1.87c-0.52-0.52-1.15-0.78-1.88-0.78
				c-0.71,0-1.33,0.26-1.86,0.77c-0.53,0.52-0.79,1.12-0.79,1.81c0,0.75,0.26,1.39,0.77,1.92c0.52,0.53,1.14,0.79,1.88,0.79
				c0.73,0,1.35-0.26,1.88-0.79C362.59,73.44,362.85,72.82,362.85,72.1z"/>
			<path class="st0" d="M367.05,63.53h1.68v12.53h-1.68V63.53z"/>
			<path class="st0" d="M384.56,72.4h-6.8c0.15,0.82,0.48,1.41,1.01,1.79c0.53,0.38,1.1,0.56,1.71,0.56c0.95,0,1.75-0.4,2.39-1.19
				l1.23,0.93c-0.92,1.19-2.15,1.79-3.7,1.79c-1.18,0-2.17-0.41-2.97-1.22s-1.2-1.82-1.2-3.02c0-1.13,0.4-2.1,1.21-2.93
				c0.81-0.83,1.79-1.24,2.96-1.24c1.15,0,2.13,0.42,2.94,1.26C384.17,69.97,384.57,71.06,384.56,72.4z M377.94,71.06h4.86
				c-0.54-1.09-1.34-1.64-2.39-1.64C379.26,69.41,378.44,69.96,377.94,71.06z"/>
			<path class="st0" d="M386.18,76.06v-7.96h1.64v1.32c0.48-0.53,0.92-0.93,1.31-1.17c0.39-0.25,0.83-0.37,1.31-0.37
				c0.72,0,1.34,0.24,1.85,0.71c0.51,0.48,0.77,1.05,0.77,1.72v5.75h-1.68v-5.26c0-0.43-0.14-0.79-0.42-1.07
				c-0.28-0.28-0.64-0.42-1.07-0.42c-0.56,0-1.04,0.24-1.45,0.71c-0.41,0.47-0.61,1.04-0.61,1.71v4.33H386.18z"/>
			<path class="st0" d="M408.28,65.13l-1.36,1.09c-0.36-0.37-0.69-0.65-0.98-0.84c-0.29-0.18-0.71-0.28-1.27-0.28
				c-0.6,0-1.09,0.14-1.47,0.41c-0.38,0.27-0.56,0.62-0.56,1.05c0,0.37,0.17,0.7,0.49,0.99c0.33,0.29,0.89,0.6,1.68,0.94
				c0.79,0.34,1.41,0.66,1.85,0.95c0.44,0.29,0.8,0.62,1.08,0.97c0.28,0.35,0.5,0.73,0.63,1.12c0.14,0.39,0.21,0.81,0.21,1.24
				c0,1.02-0.37,1.89-1.12,2.61c-0.74,0.72-1.64,1.08-2.7,1.08c-1.03,0-1.94-0.28-2.73-0.84c-0.79-0.56-1.39-1.41-1.82-2.53
				l1.68-0.47c0.61,1.38,1.55,2.08,2.81,2.08c0.61,0,1.12-0.18,1.53-0.55s0.61-0.83,0.61-1.39c0-0.33-0.11-0.67-0.32-1.01
				c-0.21-0.34-0.48-0.61-0.79-0.83c-0.32-0.22-0.82-0.47-1.51-0.75c-0.69-0.28-1.22-0.54-1.59-0.78c-0.37-0.24-0.69-0.51-0.96-0.84
				c-0.27-0.32-0.47-0.65-0.6-0.97c-0.13-0.32-0.19-0.67-0.19-1.03c0-0.88,0.36-1.63,1.06-2.25c0.71-0.62,1.57-0.93,2.58-0.93
				c0.67,0,1.35,0.14,2.04,0.43C407.25,64.09,407.82,64.54,408.28,65.13z"/>
			<path class="st0" d="M418.44,72.4h-6.8c0.15,0.82,0.48,1.41,1.01,1.79c0.52,0.38,1.09,0.56,1.71,0.56c0.95,0,1.75-0.4,2.4-1.19
				l1.22,0.93c-0.92,1.19-2.15,1.79-3.7,1.79c-1.18,0-2.17-0.41-2.97-1.22c-0.8-0.81-1.2-1.82-1.2-3.02c0-1.13,0.4-2.1,1.21-2.93
				c0.81-0.83,1.79-1.24,2.96-1.24c1.15,0,2.13,0.42,2.94,1.26C418.06,69.97,418.46,71.06,418.44,72.4z M411.82,71.06h4.87
				c-0.54-1.09-1.34-1.64-2.4-1.64C413.14,69.41,412.32,69.96,411.82,71.06z"/>
			<path class="st0" d="M427.01,68.09h1.64v7.65c0,1.13-0.39,2.08-1.16,2.87c-0.78,0.79-1.71,1.18-2.81,1.18
				c-0.84,0-1.6-0.23-2.31-0.68c-0.7-0.45-1.22-1.14-1.54-2.07h1.74c0.52,0.86,1.25,1.29,2.17,1.29c0.63,0,1.17-0.23,1.61-0.68
				c0.45-0.45,0.67-1,0.67-1.64v-1.51c-0.81,1.18-1.83,1.77-3.07,1.77c-1.02,0-1.9-0.42-2.66-1.26c-0.76-0.84-1.13-1.83-1.13-2.98
				c0-1.15,0.37-2.13,1.11-2.94c0.74-0.82,1.61-1.23,2.63-1.23c1.31,0,2.36,0.63,3.13,1.9V68.09z M427.24,72.06
				c0-0.75-0.26-1.37-0.78-1.87c-0.52-0.5-1.16-0.75-1.93-0.75c-0.7,0-1.32,0.26-1.85,0.78c-0.53,0.52-0.8,1.12-0.8,1.81
				c0,0.74,0.26,1.38,0.79,1.91c0.53,0.53,1.16,0.8,1.88,0.8c0.74,0,1.37-0.26,1.9-0.78C426.98,73.43,427.24,72.8,427.24,72.06z"/>
			<path class="st0" d="M430.99,68.09h1.68v4.49c0,1.38,0.61,2.08,1.83,2.08c0.54,0,0.97-0.19,1.28-0.56
				c0.31-0.37,0.47-0.88,0.47-1.52v-4.49h1.66v4.76c0,1-0.33,1.82-0.98,2.46c-0.65,0.64-1.48,0.96-2.49,0.96
				c-1.03,0-1.86-0.32-2.5-0.96c-0.64-0.64-0.96-1.48-0.96-2.52V68.09z"/>
			<path class="st0" d="M441.82,68.09v1.64c0.37-0.66,0.74-1.13,1.09-1.42c0.36-0.29,0.82-0.44,1.4-0.44c0.16,0,0.39,0.04,0.69,0.12
				l-0.51,1.68c-0.32-0.06-0.53-0.1-0.64-0.1c-0.56,0-1.04,0.2-1.42,0.59c-0.38,0.4-0.57,0.89-0.57,1.48v4.41h-1.68v-7.96H441.82z"
				/>
			<path class="st0" d="M446.22,65.48c0-0.35,0.13-0.65,0.39-0.9c0.26-0.25,0.56-0.38,0.92-0.38c0.35,0,0.65,0.13,0.9,0.38
				c0.25,0.25,0.38,0.56,0.38,0.9c0,0.35-0.13,0.66-0.38,0.91c-0.26,0.25-0.56,0.38-0.9,0.38c-0.36,0-0.66-0.12-0.92-0.38
				C446.35,66.13,446.22,65.83,446.22,65.48z M446.69,68.09h1.66v7.96h-1.66V68.09z"/>
			<path class="st0" d="M457.54,63.53h1.66v12.53h-1.64V74.4c-0.79,1.26-1.83,1.88-3.11,1.88c-1.04,0-1.93-0.41-2.67-1.24
				c-0.74-0.83-1.11-1.83-1.11-2.99c0-1.14,0.38-2.12,1.13-2.94c0.75-0.82,1.65-1.23,2.7-1.23c0.62,0,1.21,0.17,1.75,0.52
				c0.54,0.35,0.98,0.8,1.3,1.36V63.53z M457.73,72.06c0-0.71-0.26-1.33-0.78-1.86c-0.52-0.53-1.14-0.79-1.87-0.79
				c-0.75,0-1.38,0.26-1.9,0.77c-0.52,0.51-0.78,1.14-0.78,1.88c0,0.71,0.26,1.33,0.79,1.86c0.53,0.53,1.14,0.8,1.85,0.8
				c0.75,0,1.38-0.26,1.9-0.77C457.47,73.43,457.73,72.8,457.73,72.06z"/>
			<path class="st0" d="M468.48,68.09h1.68v7.96h-1.68v-1.58c-0.82,1.2-1.83,1.8-3.04,1.8c-1.05,0-1.94-0.41-2.69-1.24
				c-0.74-0.82-1.11-1.82-1.11-3c0-1.11,0.37-2.09,1.12-2.92c0.75-0.83,1.63-1.25,2.64-1.25c0.63,0,1.22,0.17,1.78,0.51
				c0.56,0.34,0.99,0.79,1.3,1.33V68.09z M468.71,72.1c0-0.73-0.26-1.35-0.78-1.87s-1.15-0.78-1.88-0.78
				c-0.71,0-1.33,0.26-1.86,0.77c-0.53,0.52-0.79,1.12-0.79,1.81c0,0.75,0.26,1.39,0.77,1.92c0.52,0.53,1.14,0.79,1.88,0.79
				c0.73,0,1.36-0.26,1.88-0.79C468.45,73.44,468.71,72.82,468.71,72.1z"/>
			<path class="st0" d="M479.36,63.53h1.66v12.53h-1.64V74.4c-0.79,1.26-1.83,1.88-3.11,1.88c-1.04,0-1.93-0.41-2.67-1.24
				c-0.74-0.83-1.11-1.83-1.11-2.99c0-1.14,0.38-2.12,1.13-2.94c0.75-0.82,1.65-1.23,2.7-1.23c0.63,0,1.21,0.17,1.75,0.52
				c0.54,0.35,0.97,0.8,1.29,1.36V63.53z M479.55,72.06c0-0.71-0.26-1.33-0.78-1.86c-0.52-0.53-1.15-0.79-1.87-0.79
				c-0.75,0-1.38,0.26-1.9,0.77c-0.52,0.51-0.78,1.14-0.78,1.88c0,0.71,0.26,1.33,0.79,1.86c0.53,0.53,1.14,0.8,1.85,0.8
				c0.75,0,1.38-0.26,1.91-0.77C479.29,73.43,479.55,72.8,479.55,72.06z"/>
		</g>
		<g>
			<path class="st1" d="M218.87,29.19v8.27c-3.67-2.21-6.89-3.31-9.64-3.31c-2.76,0-4.96,0.95-6.62,2.84
				c-1.65,1.9-2.48,4.45-2.48,7.65c0,3.03,0.87,5.46,2.61,7.28s4.07,2.73,6.98,2.73c2.55,0,5.6-1.03,9.15-3.08v8.22
				c-3.98,1.33-7.3,1.99-9.96,1.99c-4.57,0-8.45-1.68-11.64-5.03c-3.19-3.35-4.78-7.44-4.78-12.27c0-4.91,1.63-9.07,4.88-12.48
				c3.25-3.4,7.2-5.11,11.86-5.11C212.22,26.92,215.44,27.67,218.87,29.19z"/>
			<path class="st1" d="M223.47,50.26c0-3.43,1.09-6.23,3.28-8.4c2.19-2.17,5-3.26,8.43-3.26c3.19,0,5.87,1.11,8.03,3.32
				c2.17,2.22,3.25,4.96,3.25,8.24c0,3.34-1.08,6.12-3.25,8.33c-2.16,2.21-4.87,3.31-8.13,3.31c-3.67,0-6.52-1.17-8.56-3.5
				C224.49,55.96,223.47,53.28,223.47,50.26z M239.94,50.26c0-1.5-0.49-2.81-1.47-3.93c-0.98-1.12-2.13-1.68-3.44-1.68
				c-1.36,0-2.54,0.53-3.52,1.58c-0.98,1.05-1.47,2.31-1.47,3.77c0,1.6,0.49,2.96,1.46,4.09c0.98,1.12,2.15,1.68,3.53,1.68
				c1.31,0,2.46-0.55,3.44-1.64C239.45,53.04,239.94,51.75,239.94,50.26z"/>
			<path class="st1" d="M259.31,39.09v2.64c2.26-2.12,4.63-3.18,7.11-3.18c2.12,0,3.87,0.87,5.26,2.61
				c1.39,1.74,2.08,3.96,2.08,6.67v13.5h-6.72V48.9c0-1.28-0.35-2.35-1.05-3.23c-0.7-0.88-1.55-1.32-2.55-1.32
				c-1.21,0-2.2,0.56-2.97,1.67c-0.78,1.11-1.16,2.55-1.16,4.3v11.02h-6.62V39.09H259.31z"/>
			<path class="st1" d="M280.28,31.47h6.62v7.63h3.18v6.08h-3.18v16.16h-6.62V45.17h-2.53v-6.08h2.53V31.47z"/>
			<path class="st1" d="M300.35,39.09v3.28h0.1c0.66-1.1,1.42-1.98,2.29-2.62c0.87-0.65,1.68-0.97,2.42-0.97
				c0.45,0,0.85,0.03,1.22,0.1v7.24c-0.55-0.1-1.1-0.16-1.63-0.16c-1.36,0-2.42,0.48-3.17,1.43c-0.75,0.96-1.12,2.3-1.12,4.02v9.9
				h-6.72V39.09H300.35z"/>
			<path class="st1" d="M310.02,50.26c0-3.43,1.1-6.23,3.29-8.4c2.19-2.17,5-3.26,8.43-3.26c3.19,0,5.87,1.11,8.03,3.32
				c2.16,2.22,3.25,4.96,3.25,8.24c0,3.34-1.08,6.12-3.25,8.33c-2.16,2.21-4.87,3.31-8.13,3.31c-3.67,0-6.52-1.17-8.56-3.5
				C311.03,55.96,310.02,53.28,310.02,50.26z M326.49,50.26c0-1.5-0.49-2.81-1.47-3.93c-0.98-1.12-2.13-1.68-3.44-1.68
				c-1.36,0-2.53,0.53-3.52,1.58c-0.98,1.05-1.47,2.31-1.47,3.77c0,1.6,0.49,2.96,1.46,4.09c0.97,1.12,2.15,1.68,3.53,1.68
				c1.31,0,2.46-0.55,3.44-1.64C326,53.04,326.49,51.75,326.49,50.26z"/>
			<path class="st1" d="M339.03,26.81h6.62v34.52h-6.62V26.81z"/>
			<path class="st2" d="M352.71,27.38h7.32v13.08h12.02V27.38h7.32v33.95h-7.32v-13.5h-12.02v13.5h-7.32V27.38z"/>
			<path class="st2" d="M386.07,39.15h6.72V49.8c0,1.53,0.39,2.82,1.17,3.84c0.78,1.03,1.75,1.54,2.9,1.54
				c1.22,0,2.25-0.5,3.08-1.49c0.83-0.99,1.25-2.24,1.25-3.74V39.15h6.72v12.93c0,2.74-1.05,5.04-3.14,6.89
				c-2.09,1.85-4.7,2.78-7.81,2.78c-3.31,0-5.95-0.93-7.93-2.79c-1.98-1.86-2.97-4.33-2.97-7.42V39.15z"/>
			<path class="st2" d="M421.18,39.09v3.54c0.31-0.21,0.77-0.6,1.37-1.19c0.6-0.59,1.18-1.08,1.74-1.49s1.23-0.73,2.02-0.98
				c0.78-0.25,1.49-0.38,2.13-0.38c1.02,0,2.12,0.36,3.31,1.07c1.19,0.72,2.18,1.99,2.97,3.81c1.38-1.76,2.73-3.01,4.05-3.76
				c1.32-0.75,2.55-1.12,3.69-1.12c2.02,0,3.72,0.83,5.12,2.5c1.4,1.66,2.09,3.71,2.09,6.14v14.09h-6.62V49
				c0-1.22-0.34-2.25-1.01-3.09c-0.67-0.84-1.48-1.25-2.43-1.25c-1.14,0-2.12,0.47-2.95,1.42c-0.83,0.95-1.24,2.08-1.24,3.39v11.87
				h-6.57V49.31c0-1.29-0.34-2.38-1.02-3.27c-0.68-0.89-1.5-1.33-2.47-1.33c-1.14,0-2.12,0.49-2.95,1.46
				c-0.83,0.97-1.24,2.14-1.24,3.5v11.66h-6.67V39.09H421.18z"/>
			<path class="st2" d="M470.91,61.33v-3.8h-0.1c-1.03,1.48-2.08,2.56-3.13,3.22c-1.05,0.66-2.35,1-3.9,1
				c-2.6,0-4.82-1.12-6.65-3.36c-1.83-2.24-2.74-4.97-2.74-8.17c0-3.17,0.97-5.89,2.92-8.16c1.95-2.27,4.26-3.4,6.93-3.4
				c1.27,0,2.42,0.28,3.44,0.85c1.02,0.57,2.09,1.47,3.23,2.72v-3.08h6.62v22.19H470.91z M466.04,45.27c-1.31,0-2.41,0.52-3.28,1.56
				c-0.88,1.04-1.32,2.36-1.32,3.94c0,1.48,0.42,2.68,1.25,3.58c0.84,0.91,1.93,1.36,3.3,1.36c1.31,0,2.43-0.52,3.36-1.56
				c0.93-1.04,1.39-2.31,1.39-3.79c0-1.38-0.46-2.57-1.39-3.58C468.42,45.78,467.32,45.27,466.04,45.27z"/>
			<path class="st2" d="M491.23,39.09v2.64c2.26-2.12,4.63-3.18,7.11-3.18c2.12,0,3.87,0.87,5.26,2.61
				c1.39,1.74,2.08,3.96,2.08,6.67v13.5h-6.72V48.9c0-1.28-0.35-2.35-1.05-3.23c-0.7-0.88-1.55-1.32-2.55-1.32
				c-1.21,0-2.2,0.56-2.97,1.67c-0.78,1.11-1.17,2.55-1.17,4.3v11.02h-6.62V39.09H491.23z"/>
		</g>
	</g>
	<g>
		<rect x="4.32" y="4.21" width="92.87" height="75.58"/>
		<ellipse class="st3" cx="96.55" cy="41.59" rx="34.39" ry="35.84"/>
		<circle cx="97.18" cy="41.26" r="33.76"/>
		<g>
			<polygon class="st2" points="19.02,41.06 34.29,46.45 56.2,35.67 75.78,42.68 96.79,33.52 115.47,42.32 137.56,36.21 
				156.06,44.11 173.3,41.6 156.42,46.45 137.38,41.24 116.01,50.58 96.16,45.55 75.6,50.58 56.2,42.05 34.65,49.14 			"/>
		</g>
		<circle class="st3" cx="97.06" cy="41.45" r="7.99"/>
		<path d="M18.55,40.76C23,35.92,51.35,6.12,97.22,6.5c45.23,0.37,72.9,29.81,77.38,34.74h4.75l-0.48-1.44
			c-4.49-4.93-33.81-36.1-81.28-35.59c-46.2,0.5-74.45,30.63-79.05,35.71"/>
		<path d="M18.55,41.27c4.45,5.1,32.8,36.51,78.67,36.11c45.23-0.39,72.9-31.42,77.38-36.61h4.75l-0.48,1.51
			c-4.49,5.2-33.81,38.05-81.28,37.51c-46.2-0.53-74.45-32.28-79.05-37.63"/>
		<path class="st3" d="M97.81,79.55v-1.92c0-0.09,0.01-0.18,0.03-0.27c-0.21,0-0.41,0.01-0.62,0.01
			C51.35,77.77,23,46.36,18.55,41.27l0,0.88c4.6,5.35,32.84,37.11,79.05,37.63c0.08,0,0.16,0,0.24,0
			C97.82,79.71,97.81,79.63,97.81,79.55z"/>
		<path class="st3" d="M98.32,4.21c-0.09,0-0.17,0-0.26,0c-46.55,0.5-75,30.63-79.64,35.71l0,0.84C22.91,35.92,51.48,6.12,97.68,6.5
			c0.21,0,0.42,0.01,0.64,0.01V4.21z"/>
	</g>
</g>
</svg>
